<svg viewBox="0 0 240 240" xmlns="http://www.w3.org/2000/svg">
  <defs><radialGradient id="gsp" cx="50%" cy="50%" r="50%">
    <stop offset="0%" stop-color="#2E9C7C" stop-opacity="0.42"/>
    <stop offset="55%" stop-color="#2E9C7C" stop-opacity="0.14"/>
    <stop offset="100%" stop-color="#2E9C7C" stop-opacity="0"/>
  </radialGradient></defs>
  <ellipse cx="122" cy="196" rx="70" ry="9" fill="#14120f" opacity="0.05"/>
  <circle cx="128" cy="140" r="58" fill="url(#gsp)"/>
  <!-- dos vueltas de la espiral: enroscada sobre sí misma -->
  <circle cx="98" cy="160" r="34" fill="none" stroke="#141210" stroke-width="15"/>
  <circle cx="126" cy="128" r="25" fill="none" stroke="#141210" stroke-width="15"/>
  <!-- cola con cascabel, sale de la vuelta inferior -->
  <path d="M128 172 C140 180 150 184 160 186" fill="none" stroke="#141210" stroke-width="14" stroke-linecap="round"/>
  <circle cx="172" cy="187" r="6" fill="#2E9C7C"/>
  <circle cx="184" cy="184" r="4.6" fill="#2E9C7C"/>
  <circle cx="194" cy="178" r="3.4" fill="#5BC4A5"/>
  <circle cx="201" cy="170" r="2.4" fill="#5BC4A5"/>
  <!-- cuello alzado y cabeza en perfil, sale de la vuelta superior -->
  <path d="M127 103 C132 90 142 80 156 76" fill="none" stroke="#141210" stroke-width="14" stroke-linecap="round"/>
  <path d="M154 68 C168 68 180 76 186 88 C180 90 172 90 165 87 C158 84 154 78 154 68 Z" fill="#141210"/>
  <circle cx="166" cy="79" r="2.6" fill="#5BC4A5"/>
  <path d="M186 88 L198 84 M186 88 L198 94" fill="none" stroke="#5BC4A5" stroke-width="2.2" stroke-linecap="round"/>
  <!-- rombos del lomo sobre las vueltas -->
  <path d="M74 172 L81 180 L74 188 L67 180 Z" fill="#2E9C7C"/>
  <path d="M68 148 L75 156 L68 164 L61 156 Z" fill="#2E9C7C"/>
  <path d="M104 190 L111 198 L104 206 L97 198 Z" fill="#5BC4A5"/>
  <path d="M118 108 L125 116 L118 124 L111 116 Z" fill="#2E9C7C"/>
  <path d="M144 118 L151 126 L144 134 L137 126 Z" fill="#5BC4A5"/>
  <circle cx="58" cy="102" r="2.2" fill="#141210"/><circle cx="196" cy="132" r="2.4" fill="#141210"/>
</svg>
