<svg viewBox="0 0 240 240" xmlns="http://www.w3.org/2000/svg">
  <defs><radialGradient id="gsp" cx="50%" cy="50%" r="50%">
    <stop offset="0%" stop-color="#2E9C7C" stop-opacity="0.42"/>
    <stop offset="55%" stop-color="#2E9C7C" stop-opacity="0.14"/>
    <stop offset="100%" stop-color="#2E9C7C" stop-opacity="0"/>
  </radialGradient></defs>
  <ellipse cx="120" cy="212" rx="52" ry="8" fill="#14120f" opacity="0.05"/>
  <circle cx="120" cy="110" r="54" fill="url(#gsp)"/>
  <!-- coil de base -->
  <ellipse cx="118" cy="196" rx="38" ry="11" fill="#141210"/>
  <ellipse cx="114" cy="185" rx="26" ry="8.5" fill="#141210"/>
  <!-- cascabel subiendo -->
  <circle cx="157" cy="184" r="6.5" fill="#2E9C7C"/>
  <circle cx="165" cy="173" r="5.2" fill="#2E9C7C"/>
  <circle cx="171" cy="163" r="4.2" fill="#2E9C7C"/>
  <circle cx="175" cy="154" r="3" fill="#5BC4A5"/>
  <!-- tronco en S -->
  <path d="M120 122 C110 144 136 154 128 172 C124 181 116 185 108 187" fill="none" stroke="#141210" stroke-width="13" stroke-linecap="round"/>
  <path d="M114 141 L120 148 L114 155 L108 148 Z" fill="#2E9C7C"/>
  <path d="M128 160 L133 166 L128 172 L123 166 Z" fill="#2E9C7C"/>
  <!-- capucha de frente -->
  <path d="M120 52 C98 56 86 74 88 96 C90 114 103 124 120 126 C137 124 150 114 152 96 C154 74 142 56 120 52 Z" fill="#141210"/>
  <!-- ojos -->
  <circle cx="107" cy="84" r="3.4" fill="#5BC4A5"/>
  <circle cx="133" cy="84" r="3.4" fill="#5BC4A5"/>
  <!-- bandas del pecho -->
  <path d="M108 104 Q120 109 132 104" fill="none" stroke="#2E9C7C" stroke-width="2.6" stroke-linecap="round"/>
  <path d="M110 113 Q120 117 130 113" fill="none" stroke="#2E9C7C" stroke-width="2.6" stroke-linecap="round"/>
  <circle cx="62" cy="96" r="2.2" fill="#141210"/><circle cx="182" cy="116" r="2.4" fill="#141210"/>
</svg>
