<svg viewBox="0 0 240 240" xmlns="http://www.w3.org/2000/svg"><defs><radialGradient id="jlt" cx="50%" cy="48%" r="52%"><stop offset="0%" stop-color="#9D8BD6" stop-opacity="0.42"/><stop offset="55%" stop-color="#9D8BD6" stop-opacity="0.13"/><stop offset="100%" stop-color="#9D8BD6" stop-opacity="0"/></radialGradient></defs><circle cx="120" cy="120" r="66" fill="url(#jlt)"/><line x1="96" y1="52" x2="144" y2="52" stroke="#2E2650" stroke-width="7" stroke-linecap="round"/><line x1="120" y1="50" x2="120" y2="186" stroke="#2E2650" stroke-width="4"/><line x1="120" y1="58" x2="75" y2="68" stroke="#2E2650" stroke-width="2.4"/><line x1="120" y1="58" x2="97.5" y2="68" stroke="#2E2650" stroke-width="2.4"/><line x1="120" y1="58" x2="120" y2="68" stroke="#2E2650" stroke-width="2.4"/><line x1="120" y1="58" x2="142.5" y2="68" stroke="#2E2650" stroke-width="2.4"/><line x1="120" y1="58" x2="165" y2="68" stroke="#2E2650" stroke-width="2.4"/><line x1="120" y1="86" x2="87" y2="96" stroke="#2E2650" stroke-width="2.4"/><line x1="120" y1="86" x2="109" y2="96" stroke="#2E2650" stroke-width="2.4"/><line x1="120" y1="86" x2="131" y2="96" stroke="#2E2650" stroke-width="2.4"/><line x1="120" y1="86" x2="153" y2="96" stroke="#2E2650" stroke-width="2.4"/><line x1="120" y1="114" x2="98" y2="124" stroke="#2E2650" stroke-width="2.4"/><line x1="120" y1="114" x2="120" y2="124" stroke="#2E2650" stroke-width="2.4"/><line x1="120" y1="114" x2="142" y2="124" stroke="#2E2650" stroke-width="2.4"/><line x1="120" y1="142" x2="109" y2="152" stroke="#2E2650" stroke-width="2.4"/><line x1="120" y1="142" x2="131" y2="152" stroke="#2E2650" stroke-width="2.4"/><line x1="120" y1="170" x2="120" y2="180" stroke="#2E2650" stroke-width="2.4"/><path d="M70,72 C68,81 63,89 65,96 L85,96 C87,89 82,81 80,72 Z" fill="#463A73"/><ellipse cx="75" cy="96" rx="10" ry="3" fill="#9D8BD6" opacity="0.9"/><path d="M92.5,72 C90.5,81 85.5,89 87.5,96 L107.5,96 C109.5,89 104.5,81 102.5,72 Z" fill="#9D8BD6"/><ellipse cx="97.5" cy="96" rx="10" ry="3" fill="#9D8BD6" opacity="0.9"/><path d="M115,72 C113,81 108,89 110,96 L130,96 C132,89 127,81 125,72 Z" fill="#463A73"/><ellipse cx="120" cy="96" rx="10" ry="3" fill="#9D8BD6" opacity="0.9"/><path d="M137.5,72 C135.5,81 130.5,89 132.5,96 L152.5,96 C154.5,89 149.5,81 147.5,72 Z" fill="#463A73"/><ellipse cx="142.5" cy="96" rx="10" ry="3" fill="#9D8BD6" opacity="0.9"/><path d="M160,72 C158,81 153,89 155,96 L175,96 C177,89 172,81 170,72 Z" fill="#9D8BD6"/><ellipse cx="165" cy="96" rx="10" ry="3" fill="#9D8BD6" opacity="0.9"/><path d="M82,100 C80,109 75,117 77,124 L97,124 C99,117 94,109 92,100 Z" fill="#463A73"/><ellipse cx="87" cy="124" rx="10" ry="3" fill="#9D8BD6" opacity="0.9"/><path d="M104,100 C102,109 97,117 99,124 L119,124 C121,117 116,109 114,100 Z" fill="#463A73"/><ellipse cx="109" cy="124" rx="10" ry="3" fill="#9D8BD6" opacity="0.9"/><path d="M126,100 C124,109 119,117 121,124 L141,124 C143,117 138,109 136,100 Z" fill="#9D8BD6"/><ellipse cx="131" cy="124" rx="10" ry="3" fill="#9D8BD6" opacity="0.9"/><path d="M148,100 C146,109 141,117 143,124 L163,124 C165,117 160,109 158,100 Z" fill="#463A73"/><ellipse cx="153" cy="124" rx="10" ry="3" fill="#9D8BD6" opacity="0.9"/><path d="M93,128 C91,137 86,145 88,152 L108,152 C110,145 105,137 103,128 Z" fill="#463A73"/><ellipse cx="98" cy="152" rx="10" ry="3" fill="#9D8BD6" opacity="0.9"/><path d="M115,128 C113,137 108,145 110,152 L130,152 C132,145 127,137 125,128 Z" fill="#9D8BD6"/><ellipse cx="120" cy="152" rx="10" ry="3" fill="#9D8BD6" opacity="0.9"/><path d="M137,128 C135,137 130,145 132,152 L152,152 C154,145 149,137 147,128 Z" fill="#463A73"/><ellipse cx="142" cy="152" rx="10" ry="3" fill="#9D8BD6" opacity="0.9"/><path d="M104,156 C102,165 97,173 99,180 L119,180 C121,173 116,165 114,156 Z" fill="#463A73"/><ellipse cx="109" cy="180" rx="10" ry="3" fill="#9D8BD6" opacity="0.9"/><path d="M126,156 C124,165 119,173 121,180 L141,180 C143,173 138,165 136,156 Z" fill="#9D8BD6"/><ellipse cx="131" cy="180" rx="10" ry="3" fill="#9D8BD6" opacity="0.9"/><path d="M115,184 C113,193 108,201 110,208 L130,208 C132,201 127,193 125,184 Z" fill="#463A73"/><ellipse cx="120" cy="208" rx="10" ry="3" fill="#9D8BD6" opacity="0.9"/><circle cx="66" cy="150" r="2.2" fill="#2E2650"/><circle cx="180" cy="96" r="2.4" fill="#2E2650"/></svg>