<svg viewBox="0 0 240 240" xmlns="http://www.w3.org/2000/svg">
  <defs><radialGradient id="gll" cx="50%" cy="50%" r="50%">
    <stop offset="0%" stop-color="#6E5BAE" stop-opacity="0.42"/>
    <stop offset="55%" stop-color="#6E5BAE" stop-opacity="0.14"/>
    <stop offset="100%" stop-color="#6E5BAE" stop-opacity="0"/>
  </radialGradient></defs>
  <circle cx="120" cy="130" r="52" fill="url(#gll)"/>

  <path d="M70 64 L54 108 M104 56 L88 100 M138 60 L122 104 M170 68 L154 112" fill="none" stroke="#9D8BD6" stroke-width="3" stroke-linecap="round" opacity="0.55"/>
  <ellipse cx="76" cy="124" rx="6" ry="11" fill="#6E5BAE" transform="rotate(-24 76 124)"/>
  <ellipse cx="112" cy="108" rx="7" ry="12" fill="#6E5BAE" transform="rotate(-30 112 108)"/>
  <ellipse cx="146" cy="126" rx="6" ry="11" fill="#9D8BD6" transform="rotate(-18 146 126)"/>
  <ellipse cx="94" cy="152" rx="6" ry="10" fill="#9D8BD6" transform="rotate(-34 94 152)"/>
  <ellipse cx="130" cy="158" rx="6" ry="10" fill="#6E5BAE" transform="rotate(-14 130 158)"/>
  <ellipse cx="164" cy="160" rx="5" ry="9" fill="#6E5BAE" transform="rotate(-28 164 160)"/>
  <rect x="46" y="176" width="148" height="5" rx="2.5" fill="#141210"/>
  <circle cx="58" cy="150" r="2.2" fill="#141210"/><circle cx="184" cy="96" r="2.4" fill="#141210"/>

</svg>