<svg viewBox="0 0 240 240" xmlns="http://www.w3.org/2000/svg"><defs><radialGradient id="jfg" cx="50%" cy="42%" r="52%"><stop offset="0%" stop-color="#FFF3D6" stop-opacity="0.9"/><stop offset="42%" stop-color="#9D8BD6" stop-opacity="0.5"/><stop offset="100%" stop-color="#9D8BD6" stop-opacity="0"/></radialGradient></defs><ellipse cx="120" cy="214" rx="60" ry="8" fill="#2E2650" opacity="0.06"/><circle cx="120" cy="96" r="78" fill="url(#jfg)"/><path d="M112,206 L112,120 L128,120 L128,206 Z" fill="#2E2650"/><line x1="120" y1="126" x2="94" y2="82" stroke="#2E2650" stroke-width="9" stroke-linecap="round"/><line x1="120" y1="126" x2="120" y2="80" stroke="#2E2650" stroke-width="9" stroke-linecap="round"/><line x1="120" y1="126" x2="147" y2="83" stroke="#2E2650" stroke-width="9" stroke-linecap="round"/><circle cx="120" cy="78" r="40" fill="#463A73"/><circle cx="80" cy="96" r="30" fill="#463A73"/><circle cx="160" cy="96" r="30" fill="#463A73"/><circle cx="98" cy="62" r="26" fill="#463A73"/><circle cx="144" cy="60" r="27" fill="#463A73"/><circle cx="120" cy="108" r="30" fill="#463A73"/><circle cx="68" cy="74" r="20" fill="#463A73"/><circle cx="172" cy="74" r="20" fill="#463A73"/><circle cx="171" cy="97" r="5" fill="#9D8BD6" opacity="0.8"/><circle cx="157" cy="102" r="6" fill="#9D8BD6" opacity="0.8"/><circle cx="121" cy="87" r="6" fill="#9D8BD6" opacity="0.8"/><circle cx="134" cy="95" r="8" fill="#9D8BD6" opacity="0.8"/><circle cx="102" cy="75" r="7" fill="#9D8BD6" opacity="0.8"/><circle cx="71" cy="97" r="5" fill="#9D8BD6" opacity="0.8"/><circle cx="95" cy="85" r="8" fill="#9D8BD6" opacity="0.8"/><circle cx="83" cy="107" r="6" fill="#9D8BD6" opacity="0.8"/><circle cx="158" cy="105" r="5" fill="#9D8BD6" opacity="0.8"/><circle cx="82" cy="104" r="5" fill="#9D8BD6" opacity="0.8"/><circle cx="152" cy="112" r="4" fill="#9D8BD6" opacity="0.8"/><circle cx="127" cy="71" r="8" fill="#9D8BD6" opacity="0.8"/><circle cx="163" cy="69" r="6" fill="#9D8BD6" opacity="0.8"/><circle cx="92" cy="102" r="8" fill="#9D8BD6" opacity="0.8"/><circle cx="161" cy="84" r="8" fill="#9D8BD6" opacity="0.8"/><circle cx="90" cy="150" r="3" fill="#463A73" opacity="0.7"/><circle cx="138" cy="162" r="3" fill="#463A73" opacity="0.7"/><circle cx="160" cy="140" r="3" fill="#463A73" opacity="0.7"/><rect x="68" y="204" width="104" height="6" rx="3" fill="#463A73"/><circle cx="60" cy="150" r="2.2" fill="#2E2650"/><circle cx="182" cy="176" r="2.4" fill="#2E2650"/></svg>