<svg viewBox="0 0 240 240" xmlns="http://www.w3.org/2000/svg">
  <defs><radialGradient id="gor" cx="50%" cy="50%" r="50%">
    <stop offset="0%" stop-color="#6E5BAE" stop-opacity="0.42"/>
    <stop offset="55%" stop-color="#6E5BAE" stop-opacity="0.14"/>
    <stop offset="100%" stop-color="#6E5BAE" stop-opacity="0"/>
  </radialGradient></defs>
  <circle cx="120" cy="130" r="52" fill="url(#gor)"/>

  <path d="M120 96 A34 34 0 0 1 154 130 L86 130 A34 34 0 0 1 120 96 Z" fill="#6E5BAE"/>
  <rect x="46" y="128" width="148" height="5" rx="2.5" fill="#141210"/>
  <path d="M62 160 C74 152 86 168 98 160 C110 152 122 168 134 160" fill="none" stroke="#9D8BD6" stroke-width="4" stroke-linecap="round"/>
  <path d="M96 184 C108 176 120 192 132 184 C144 176 156 192 168 184" fill="none" stroke="#141210" stroke-width="4" stroke-linecap="round"/>
  <circle cx="70" cy="84" r="2.2" fill="#141210"/><circle cx="176" cy="102" r="2.4" fill="#141210"/>

</svg>