<svg viewBox="0 0 240 240" xmlns="http://www.w3.org/2000/svg">
  <defs><radialGradient id="gco" cx="50%" cy="50%" r="50%">
    <stop offset="0%" stop-color="#6E5BAE" stop-opacity="0.42"/>
    <stop offset="55%" stop-color="#6E5BAE" stop-opacity="0.14"/>
    <stop offset="100%" stop-color="#6E5BAE" stop-opacity="0"/>
  </radialGradient></defs>
  <circle cx="120" cy="140" r="52" fill="url(#gco)"/>

  <ellipse cx="120" cy="206" rx="44" ry="7" fill="#141210" opacity="0.05"/>
  <path d="M120 204 L120 96 M120 150 C102 144 92 128 90 110 M120 162 C140 156 150 140 152 120 M120 118 C110 110 106 100 106 88 M152 120 C158 110 158 100 154 92" fill="none" stroke="#141210" stroke-width="7" stroke-linecap="round"/>
  <circle cx="120" cy="92" r="7" fill="#6E5BAE"/>
  <circle cx="90" cy="106" r="6" fill="#6E5BAE"/>
  <circle cx="106" cy="84" r="5" fill="#9D8BD6"/>
  <circle cx="154" cy="88" r="6" fill="#9D8BD6"/>
  <circle cx="66" cy="150" r="2.2" fill="#141210"/><circle cx="178" cy="168" r="2.4" fill="#141210"/>

</svg>