<svg viewBox="0 0 240 240" xmlns="http://www.w3.org/2000/svg"><rect width="240" height="240" fill="#3A3A38"/><defs><linearGradient id="aucur" x1="0" y1="0" x2="0" y2="1"><stop offset="0%" stop-color="#5FE8B0" stop-opacity="0"/><stop offset="38%" stop-color="#5FE8B0" stop-opacity="0.85"/><stop offset="100%" stop-color="#5FE8B0" stop-opacity="0.05"/></linearGradient></defs><polyline points="24.0,28.8 26.1,43.7 28.2,58.6 29.9,73.4 31.4,88.3 32.4,103.2 32.9,118.1 32.9,133.0 32.5,147.8 31.5,162.7 30.1,177.6" fill="none" stroke="url(#aucur)" stroke-width="1.82"/><polyline points="27.4,28.8 29.8,43.7 31.9,58.6 33.7,73.4 35.1,88.3 35.9,103.2 36.1,118.1 35.7,133.0 34.7,147.8 33.2,162.7 31.3,177.6" fill="none" stroke="url(#aucur)" stroke-width="1.83"/><polyline points="31.2,28.8 33.7,43.7 35.9,58.6 37.6,73.4 38.6,88.3 39.1,103.2 38.8,118.1 37.9,133.0 36.4,147.8 34.3,162.7 31.9,177.6" fill="none" stroke="url(#aucur)" stroke-width="1.56"/><polyline points="35.2,28.8 37.8,43.7 39.8,58.6 41.2,73.4 41.9,88.3 41.8,103.2 41.0,118.1 39.5,133.0 37.4,147.8 34.8,162.7 31.9,177.6" fill="none" stroke="url(#aucur)" stroke-width="1.36"/><polyline points="39.4,28.8 41.8,43.7 43.5,58.6 44.5,73.4 44.6,88.3 44.0,103.2 42.6,118.1 40.5,133.0 37.8,147.8 34.7,162.7 31.3,177.6" fill="none" stroke="url(#aucur)" stroke-width="1.15"/><polyline points="43.4,28.8 45.4,43.7 46.7,58.6 47.1,73.4 46.7,88.3 45.4,103.2 43.4,118.1 40.7,133.0 37.5,147.8 34.0,162.7 30.4,177.6" fill="none" stroke="url(#aucur)" stroke-width="1.45"/><polyline points="47.0,28.8 48.6,43.7 49.3,58.6 49.1,73.4 48.1,88.3 46.2,103.2 43.5,118.1 40.4,133.0 36.8,147.8 33.1,162.7 29.4,177.6" fill="none" stroke="url(#aucur)" stroke-width="1.47"/><polyline points="50.1,28.8 51.1,43.7 51.2,58.6 50.3,73.4 48.7,88.3 46.2,103.2 43.1,118.1 39.6,133.0 35.8,147.8 32.0,162.7 28.4,177.6" fill="none" stroke="url(#aucur)" stroke-width="1.14"/><polyline points="52.5,28.8 52.9,43.7 52.3,58.6 50.8,73.4 48.6,88.3 45.7,103.2 42.3,118.1 38.5,133.0 34.7,147.8 31.0,162.7 27.7,177.6" fill="none" stroke="url(#aucur)" stroke-width="1.14"/><polyline points="54.2,28.8 53.9,43.7 52.7,58.6 50.7,73.4 48.0,88.3 44.8,103.2 41.2,118.1 37.5,133.0 33.8,147.8 30.4,162.7 27.4,177.6" fill="none" stroke="url(#aucur)" stroke-width="2.00"/><polyline points="55.1,28.8 54.2,43.7 52.5,58.6 50.1,73.4 47.1,88.3 43.7,103.2 40.2,118.1 36.6,133.0 33.2,147.8 30.2,162.7 27.8,177.6" fill="none" stroke="url(#aucur)" stroke-width="1.69"/><polyline points="55.3,28.8 53.9,43.7 51.8,58.6 49.2,73.4 46.1,88.3 42.8,103.2 39.4,118.1 36.1,133.0 33.2,147.8 30.7,162.7 28.9,177.6" fill="none" stroke="url(#aucur)" stroke-width="1.31"/><polyline points="55.0,28.8 53.3,43.7 51.0,58.6 48.2,73.4 45.2,88.3 42.1,103.2 39.0,118.1 36.2,133.0 33.8,147.8 32.0,162.7 30.8,177.6" fill="none" stroke="url(#aucur)" stroke-width="1.49"/><polyline points="54.4,28.8 52.5,43.7 50.1,58.6 47.5,73.4 44.6,88.3 41.8,103.2 39.2,118.1 36.9,133.0 35.1,147.8 33.9,162.7 33.2,177.6" fill="none" stroke="url(#aucur)" stroke-width="1.98"/><polyline points="53.8,28.8 51.8,43.7 49.5,58.6 47.0,73.4 44.5,88.3 42.2,103.2 40.1,118.1 38.3,133.0 37.1,147.8 36.3,162.7 36.2,177.6" fill="none" stroke="url(#aucur)" stroke-width="1.91"/><polyline points="53.2,28.8 51.3,43.7 49.2,58.6 47.1,73.4 45.0,88.3 43.1,103.2 41.5,118.1 40.3,133.0 39.5,147.8 39.3,162.7 39.5,177.6" fill="none" stroke="url(#aucur)" stroke-width="1.86"/><polyline points="52.9,28.8 51.2,43.7 49.4,58.6 47.6,73.4 46.0,88.3 44.6,103.2 43.4,118.1 42.7,133.0 42.4,147.8 42.4,162.7 42.9,177.6" fill="none" stroke="url(#aucur)" stroke-width="1.45"/><polyline points="52.9,28.8 51.5,43.7 50.0,58.6 48.7,73.4 47.5,88.3 46.5,103.2 45.8,118.1 45.4,133.0 45.4,147.8 45.7,162.7 46.3,177.6" fill="none" stroke="url(#aucur)" stroke-width="1.54"/><polyline points="53.4,28.8 52.3,43.7 51.2,58.6 50.2,73.4 49.3,88.3 48.7,103.2 48.3,118.1 48.2,133.0 48.4,147.8 48.8,162.7 49.5,177.6" fill="none" stroke="url(#aucur)" stroke-width="1.71"/><polyline points="54.3,28.8 53.4,43.7 52.6,58.6 51.9,73.4 51.4,88.3 51.1,103.2 50.9,118.1 51.0,133.0 51.3,147.8 51.7,162.7 52.4,177.6" fill="none" stroke="url(#aucur)" stroke-width="1.15"/><polyline points="55.5,28.8 54.9,43.7 54.3,58.6 53.9,73.4 53.5,88.3 53.4,103.2 53.4,118.1 53.6,133.0 53.9,147.8 54.4,162.7 54.9,177.6" fill="none" stroke="url(#aucur)" stroke-width="1.60"/><polyline points="56.9,28.8 56.4,43.7 56.1,58.6 55.8,73.4 55.6,88.3 55.6,103.2 55.7,118.1 55.9,133.0 56.2,147.8 56.7,162.7 57.2,177.6" fill="none" stroke="url(#aucur)" stroke-width="1.34"/><polyline points="58.4,28.8 58.0,43.7 57.7,58.6 57.5,73.4 57.5,88.3 57.5,103.2 57.7,118.1 58.0,133.0 58.3,147.8 58.7,162.7 59.2,177.6" fill="none" stroke="url(#aucur)" stroke-width="1.89"/><polyline points="59.7,28.8 59.4,43.7 59.2,58.6 59.1,73.4 59.1,88.3 59.2,103.2 59.5,118.1 59.8,133.0 60.2,147.8 60.7,162.7 61.2,177.6" fill="none" stroke="url(#aucur)" stroke-width="1.16"/><polyline points="60.8,28.8 60.5,43.7 60.4,58.6 60.4,73.4 60.5,88.3 60.7,103.2 61.1,118.1 61.5,133.0 62.1,147.8 62.6,162.7 63.2,177.6" fill="none" stroke="url(#aucur)" stroke-width="1.71"/><polyline points="61.7,28.8 61.4,43.7 61.3,58.6 61.4,73.4 61.7,88.3 62.1,103.2 62.7,118.1 63.3,133.0 64.0,147.8 64.7,162.7 65.4,177.6" fill="none" stroke="url(#aucur)" stroke-width="1.88"/><polyline points="62.2,28.8 62.1,43.7 62.2,58.6 62.4,73.4 62.9,88.3 63.6,103.2 64.4,118.1 65.2,133.0 66.2,147.8 67.1,162.7 67.9,177.6" fill="none" stroke="url(#aucur)" stroke-width="1.30"/><polyline points="62.6,28.8 62.6,43.7 62.9,58.6 63.5,73.4 64.2,88.3 65.2,103.2 66.3,118.1 67.5,133.0 68.7,147.8 69.8,162.7 70.8,177.6" fill="none" stroke="url(#aucur)" stroke-width="1.91"/><polyline points="62.9,28.8 63.2,43.7 63.8,58.6 64.7,73.4 65.8,88.3 67.2,103.2 68.7,118.1 70.2,133.0 71.6,147.8 72.9,162.7 74.0,177.6" fill="none" stroke="url(#aucur)" stroke-width="1.88"/><polyline points="63.3,28.8 63.9,43.7 64.9,58.6 66.3,73.4 67.9,88.3 69.6,103.2 71.5,118.1 73.2,133.0 74.9,147.8 76.3,162.7 77.4,177.6" fill="none" stroke="url(#aucur)" stroke-width="1.12"/><polyline points="64.0,28.8 65.0,43.7 66.5,58.6 68.3,73.4 70.4,88.3 72.6,103.2 74.7,118.1 76.7,133.0 78.5,147.8 80.0,162.7 81.0,177.6" fill="none" stroke="url(#aucur)" stroke-width="1.74"/><polyline points="65.0,28.8 66.6,43.7 68.6,58.6 71.0,73.4 73.5,88.3 76.0,103.2 78.4,118.1 80.6,133.0 82.3,147.8 83.7,162.7 84.4,177.6" fill="none" stroke="url(#aucur)" stroke-width="1.10"/><polyline points="66.7,28.8 68.8,43.7 71.4,58.6 74.2,73.4 77.0,88.3 79.8,103.2 82.4,118.1 84.5,133.0 86.2,147.8 87.2,162.7 87.6,177.6" fill="none" stroke="url(#aucur)" stroke-width="1.55"/><polyline points="69.0,28.8 71.7,43.7 74.7,58.6 77.9,73.4 81.0,88.3 83.9,103.2 86.4,118.1 88.4,133.0 89.8,147.8 90.4,162.7 90.3,177.6" fill="none" stroke="url(#aucur)" stroke-width="1.49"/><polyline points="72.0,28.8 75.1,43.7 78.5,58.6 81.9,73.4 85.2,88.3 88.0,103.2 90.4,118.1 92.1,133.0 93.0,147.8 93.1,162.7 92.4,177.6" fill="none" stroke="url(#aucur)" stroke-width="1.28"/><polyline points="75.5,28.8 79.1,43.7 82.7,58.6 86.2,73.4 89.3,88.3 92.0,103.2 94.0,118.1 95.2,133.0 95.6,147.8 95.1,162.7 93.8,177.6" fill="none" stroke="url(#aucur)" stroke-width="1.39"/><polyline points="79.5,28.8 83.3,43.7 87.0,58.6 90.4,73.4 93.3,88.3 95.6,103.2 97.1,118.1 97.8,133.0 97.5,147.8 96.4,162.7 94.4,177.6" fill="none" stroke="url(#aucur)" stroke-width="1.83"/><polyline points="83.8,28.8 87.6,43.7 91.2,58.6 94.3,73.4 96.8,88.3 98.6,103.2 99.6,118.1 99.6,133.0 98.7,147.8 96.9,162.7 94.4,177.6" fill="none" stroke="url(#aucur)" stroke-width="1.38"/><polyline points="88.1,28.8 91.8,43.7 95.0,58.6 97.8,73.4 99.8,88.3 101.0,103.2 101.2,118.1 100.6,133.0 99.1,147.8 96.8,162.7 93.8,177.6" fill="none" stroke="url(#aucur)" stroke-width="1.23"/><polyline points="92.2,28.8 95.6,43.7 98.4,58.6 100.6,73.4 102.0,88.3 102.5,103.2 102.2,118.1 100.9,133.0 98.9,147.8 96.2,162.7 92.9,177.6" fill="none" stroke="url(#aucur)" stroke-width="1.73"/><polyline points="95.9,28.8 98.8,43.7 101.1,58.6 102.7,73.4 103.5,88.3 103.4,103.2 102.4,118.1 100.7,133.0 98.2,147.8 95.3,162.7 91.9,177.6" fill="none" stroke="url(#aucur)" stroke-width="1.50"/><polyline points="99.1,28.8 101.4,43.7 103.1,58.6 104.1,73.4 104.2,88.3 103.5,103.2 102.1,118.1 100.0,133.0 97.3,147.8 94.2,162.7 90.9,177.6" fill="none" stroke="url(#aucur)" stroke-width="1.82"/><polyline points="101.6,28.8 103.3,43.7 104.4,58.6 104.7,73.4 104.4,88.3 103.2,103.2 101.5,118.1 99.1,133.0 96.4,147.8 93.4,162.7 90.3,177.6" fill="none" stroke="url(#aucur)" stroke-width="1.31"/><polyline points="103.4,28.8 104.5,43.7 105.0,58.6 104.9,73.4 104.1,88.3 102.6,103.2 100.7,118.1 98.3,133.0 95.6,147.8 92.8,162.7 90.1,177.6" fill="none" stroke="url(#aucur)" stroke-width="1.39"/><polyline points="104.6,28.8 105.2,43.7 105.2,58.6 104.7,73.4 103.6,88.3 102.0,103.2 100.0,118.1 97.7,133.0 95.2,147.8 92.8,162.7 90.5,177.6" fill="none" stroke="url(#aucur)" stroke-width="1.82"/><polyline points="105.2,28.8 105.4,43.7 105.1,58.6 104.3,73.4 103.0,88.3 101.4,103.2 99.5,118.1 97.4,133.0 95.3,147.8 93.3,162.7 91.4,177.6" fill="none" stroke="url(#aucur)" stroke-width="1.56"/><polyline points="105.6,28.8 105.4,43.7 104.9,58.6 103.9,73.4 102.6,88.3 101.1,103.2 99.4,118.1 97.7,133.0 95.9,147.8 94.3,162.7 93.0,177.6" fill="none" stroke="url(#aucur)" stroke-width="1.56"/><polyline points="105.8,28.8 105.4,43.7 104.7,58.6 103.8,73.4 102.6,88.3 101.2,103.2 99.8,118.1 98.4,133.0 97.0,147.8 95.9,162.7 94.9,177.6" fill="none" stroke="url(#aucur)" stroke-width="1.31"/><polyline points="106.0,28.8 105.5,43.7 104.8,58.6 103.9,73.4 102.9,88.3 101.8,103.2 100.6,118.1 99.5,133.0 98.6,147.8 97.8,162.7 97.2,177.6" fill="none" stroke="url(#aucur)" stroke-width="1.11"/><polyline points="106.3,28.8 105.8,43.7 105.2,58.6 104.4,73.4 103.6,88.3 102.7,103.2 101.8,118.1 101.0,133.0 100.4,147.8 99.8,162.7 99.5,177.6" fill="none" stroke="url(#aucur)" stroke-width="1.94"/><polyline points="106.9,28.8 106.5,43.7 105.9,58.6 105.3,73.4 104.6,88.3 103.9,103.2 103.3,118.1 102.7,133.0 102.3,147.8 102.0,162.7 101.8,177.6" fill="none" stroke="url(#aucur)" stroke-width="1.18"/><polyline points="107.9,28.8 107.4,43.7 106.9,58.6 106.4,73.4 105.8,88.3 105.3,103.2 104.8,118.1 104.5,133.0 104.2,147.8 104.0,162.7 104.0,177.6" fill="none" stroke="url(#aucur)" stroke-width="1.86"/><polyline points="109.0,28.8 108.6,43.7 108.1,58.6 107.6,73.4 107.2,88.3 106.7,103.2 106.4,118.1 106.1,133.0 105.9,147.8 105.9,162.7 105.9,177.6" fill="none" stroke="url(#aucur)" stroke-width="1.43"/><polyline points="110.3,28.8 109.9,43.7 109.4,58.6 108.9,73.4 108.4,88.3 108.1,103.2 107.7,118.1 107.5,133.0 107.5,147.8 107.5,162.7 107.6,177.6" fill="none" stroke="url(#aucur)" stroke-width="1.96"/><polyline points="111.7,28.8 111.1,43.7 110.6,58.6 110.0,73.4 109.5,88.3 109.2,103.2 108.9,118.1 108.7,133.0 108.7,147.8 108.9,162.7 109.1,177.6" fill="none" stroke="url(#aucur)" stroke-width="1.46"/><polyline points="113.0,28.8 112.2,43.7 111.5,58.6 110.9,73.4 110.4,88.3 110.0,103.2 109.8,118.1 109.7,133.0 109.8,147.8 110.1,162.7 110.5,177.6" fill="none" stroke="url(#aucur)" stroke-width="1.94"/><polyline points="114.0,28.8 113.1,43.7 112.2,58.6 111.5,73.4 110.9,88.3 110.6,103.2 110.4,118.1 110.5,133.0 110.8,147.8 111.3,162.7 112.0,177.6" fill="none" stroke="url(#aucur)" stroke-width="1.60"/><polyline points="114.6,28.8 113.5,43.7 112.5,58.6 111.7,73.4 111.2,88.3 110.9,103.2 110.9,118.1 111.2,133.0 111.8,147.8 112.6,162.7 113.6,177.6" fill="none" stroke="url(#aucur)" stroke-width="1.32"/><polyline points="114.9,28.8 113.6,43.7 112.5,58.6 111.8,73.4 111.3,88.3 111.2,103.2 111.5,118.1 112.1,133.0 113.1,147.8 114.3,162.7 115.7,177.6" fill="none" stroke="url(#aucur)" stroke-width="1.77"/><polyline points="114.8,28.8 113.4,43.7 112.3,58.6 111.7,73.4 111.4,88.3 111.6,103.2 112.3,118.1 113.3,133.0 114.7,147.8 116.3,162.7 118.1,177.6" fill="none" stroke="url(#aucur)" stroke-width="1.71"/><polyline points="114.3,28.8 113.0,43.7 112.0,58.6 111.6,73.4 111.7,88.3 112.3,103.2 113.4,118.1 115.0,133.0 116.8,147.8 118.9,162.7 121.1,177.6" fill="none" stroke="url(#aucur)" stroke-width="1.72"/><polyline points="113.8,28.8 112.5,43.7 111.8,58.6 111.8,73.4 112.3,88.3 113.4,103.2 115.1,118.1 117.1,133.0 119.5,147.8 122.0,162.7 124.6,177.6" fill="none" stroke="url(#aucur)" stroke-width="1.52"/><polyline points="113.2,28.8 112.2,43.7 112.0,58.6 112.4,73.4 113.5,88.3 115.2,103.2 117.4,118.1 119.9,133.0 122.8,147.8 125.6,162.7 128.4,177.6" fill="none" stroke="url(#aucur)" stroke-width="1.30"/><polyline points="112.9,28.8 112.3,43.7 112.6,58.6 113.6,73.4 115.2,88.3 117.5,103.2 120.3,118.1 123.3,133.0 126.5,147.8 129.6,162.7 132.5,177.6" fill="none" stroke="url(#aucur)" stroke-width="1.68"/><polyline points="113.0,28.8 113.0,43.7 113.8,58.6 115.4,73.4 117.7,88.3 120.5,103.2 123.8,118.1 127.2,133.0 130.6,147.8 133.8,162.7 136.7,177.6" fill="none" stroke="url(#aucur)" stroke-width="1.20"/><polyline points="113.7,28.8 114.3,43.7 115.8,58.6 118.0,73.4 120.9,88.3 124.1,103.2 127.7,118.1 131.3,133.0 134.8,147.8 138.0,162.7 140.6,177.6" fill="none" stroke="url(#aucur)" stroke-width="1.72"/><polyline points="115.1,28.8 116.4,43.7 118.5,58.6 121.3,73.4 124.6,88.3 128.2,103.2 132.0,118.1 135.6,133.0 139.0,147.8 141.9,162.7 144.2,177.6" fill="none" stroke="url(#aucur)" stroke-width="1.67"/><polyline points="117.3,28.8 119.2,43.7 121.8,58.6 125.1,73.4 128.7,88.3 132.5,103.2 136.3,118.1 139.8,133.0 142.9,147.8 145.4,162.7 147.1,177.6" fill="none" stroke="url(#aucur)" stroke-width="1.44"/><polyline points="120.3,28.8 122.7,43.7 125.7,58.6 129.2,73.4 133.0,88.3 136.8,103.2 140.4,118.1 143.7,133.0 146.3,147.8 148.3,162.7 149.4,177.6" fill="none" stroke="url(#aucur)" stroke-width="1.82"/><polyline points="123.8,28.8 126.6,43.7 129.9,58.6 133.5,73.4 137.2,88.3 140.9,103.2 144.2,118.1 147.0,133.0 149.1,147.8 150.4,162.7 150.9,177.6" fill="none" stroke="url(#aucur)" stroke-width="1.27"/><polyline points="127.7,28.8 130.8,43.7 134.2,58.6 137.7,73.4 141.3,88.3 144.5,103.2 147.4,118.1 149.6,133.0 151.1,147.8 151.8,162.7 151.7,177.6" fill="none" stroke="url(#aucur)" stroke-width="1.45"/><polyline points="131.9,28.8 135.0,43.7 138.3,58.6 141.7,73.4 144.8,88.3 147.6,103.2 149.9,118.1 151.5,133.0 152.4,147.8 152.5,162.7 151.8,177.6" fill="none" stroke="url(#aucur)" stroke-width="1.82"/><polyline points="136.0,28.8 139.1,43.7 142.1,58.6 145.1,73.4 147.8,88.3 150.0,103.2 151.7,118.1 152.7,133.0 153.0,147.8 152.6,162.7 151.5,177.6" fill="none" stroke="url(#aucur)" stroke-width="1.44"/><polyline points="140.0,28.8 142.7,43.7 145.5,58.6 148.0,73.4 150.1,88.3 151.8,103.2 152.9,118.1 153.4,133.0 153.2,147.8 152.3,162.7 150.8,177.6" fill="none" stroke="url(#aucur)" stroke-width="1.74"/><polyline points="143.5,28.8 145.9,43.7 148.2,58.6 150.2,73.4 151.8,88.3 152.9,103.2 153.5,118.1 153.5,133.0 152.9,147.8 151.8,162.7 150.2,177.6" fill="none" stroke="url(#aucur)" stroke-width="1.65"/><polyline points="146.6,28.8 148.6,43.7 150.4,58.6 151.8,73.4 152.9,88.3 153.6,103.2 153.7,118.1 153.3,133.0 152.5,147.8 151.2,162.7 149.6,177.6" fill="none" stroke="url(#aucur)" stroke-width="1.95"/><polyline points="149.1,28.8 150.7,43.7 152.0,58.6 153.0,73.4 153.6,88.3 153.9,103.2 153.7,118.1 153.1,133.0 152.2,147.8 150.9,162.7 149.4,177.6" fill="none" stroke="url(#aucur)" stroke-width="1.99"/><polyline points="151.2,28.8 152.3,43.7 153.2,58.6 153.8,73.4 154.1,88.3 154.0,103.2 153.7,118.1 153.0,133.0 152.0,147.8 150.8,162.7 149.5,177.6" fill="none" stroke="url(#aucur)" stroke-width="1.75"/><polyline points="152.8,28.8 153.6,43.7 154.1,58.6 154.4,73.4 154.5,88.3 154.3,103.2 153.8,118.1 153.1,133.0 152.2,147.8 151.2,162.7 150.1,177.6" fill="none" stroke="url(#aucur)" stroke-width="1.83"/><polyline points="154.2,28.8 154.7,43.7 155.0,58.6 155.1,73.4 154.9,88.3 154.6,103.2 154.1,118.1 153.5,133.0 152.7,147.8 151.9,162.7 151.0,177.6" fill="none" stroke="url(#aucur)" stroke-width="1.24"/><polyline points="155.5,28.8 155.7,43.7 155.9,58.6 155.8,73.4 155.6,88.3 155.3,103.2 154.8,118.1 154.2,133.0 153.6,147.8 152.9,162.7 152.3,177.6" fill="none" stroke="url(#aucur)" stroke-width="1.74"/><polyline points="156.8,28.8 156.9,43.7 156.9,58.6 156.8,73.4 156.6,88.3 156.2,103.2 155.8,118.1 155.3,133.0 154.7,147.8 154.2,162.7 153.7,177.6" fill="none" stroke="url(#aucur)" stroke-width="1.86"/><polyline points="158.3,28.8 158.3,43.7 158.2,58.6 158.0,73.4 157.8,88.3 157.4,103.2 157.0,118.1 156.5,133.0 156.0,147.8 155.5,162.7 155.1,177.6" fill="none" stroke="url(#aucur)" stroke-width="1.46"/><polyline points="160.0,28.8 159.9,43.7 159.8,58.6 159.5,73.4 159.2,88.3 158.7,103.2 158.2,118.1 157.7,133.0 157.3,147.8 156.8,162.7 156.4,177.6" fill="none" stroke="url(#aucur)" stroke-width="1.60"/><polyline points="162.0,28.8 161.8,43.7 161.5,58.6 161.1,73.4 160.6,88.3 160.1,103.2 159.5,118.1 158.9,133.0 158.4,147.8 157.9,162.7 157.5,177.6" fill="none" stroke="url(#aucur)" stroke-width="1.53"/><polyline points="164.1,28.8 163.8,43.7 163.3,58.6 162.7,73.4 162.1,88.3 161.3,103.2 160.6,118.1 159.9,133.0 159.2,147.8 158.7,162.7 158.3,177.6" fill="none" stroke="url(#aucur)" stroke-width="1.96"/><polyline points="166.3,28.8 165.8,43.7 165.1,58.6 164.2,73.4 163.3,88.3 162.3,103.2 161.4,118.1 160.5,133.0 159.8,147.8 159.2,162.7 158.9,177.6" fill="none" stroke="url(#aucur)" stroke-width="1.39"/><polyline points="168.5,28.8 167.6,43.7 166.6,58.6 165.4,73.4 164.2,88.3 162.9,103.2 161.8,118.1 160.8,133.0 160.0,147.8 159.5,162.7 159.2,177.6" fill="none" stroke="url(#aucur)" stroke-width="1.46"/><polyline points="170.4,28.8 169.1,43.7 167.7,58.6 166.2,73.4 164.6,88.3 163.2,103.2 161.9,118.1 160.8,133.0 160.0,147.8 159.6,162.7 159.5,177.6" fill="none" stroke="url(#aucur)" stroke-width="1.10"/><polyline points="171.9,28.8 170.2,43.7 168.4,58.6 166.5,73.4 164.7,88.3 163.0,103.2 161.6,118.1 160.6,133.0 159.9,147.8 159.7,162.7 160.0,177.6" fill="none" stroke="url(#aucur)" stroke-width="1.48"/><polyline points="172.9,28.8 170.8,43.7 168.5,58.6 166.3,73.4 164.3,88.3 162.6,103.2 161.2,118.1 160.3,133.0 159.9,147.8 160.0,162.7 160.7,177.6" fill="none" stroke="url(#aucur)" stroke-width="1.67"/><polyline points="173.4,28.8 170.8,43.7 168.2,58.6 165.8,73.4 163.7,88.3 162.0,103.2 160.7,118.1 160.1,133.0 160.1,147.8 160.7,162.7 161.9,177.6" fill="none" stroke="url(#aucur)" stroke-width="1.94"/><polyline points="173.3,28.8 170.4,43.7 167.6,58.6 165.1,73.4 163.0,88.3 161.4,103.2 160.5,118.1 160.3,133.0 160.7,147.8 161.9,162.7 163.6,177.6" fill="none" stroke="url(#aucur)" stroke-width="1.93"/><polyline points="172.7,28.8 169.6,43.7 166.7,58.6 164.2,73.4 162.3,88.3 161.1,103.2 160.7,118.1 160.9,133.0 162.0,147.8 163.7,162.7 166.1,177.6" fill="none" stroke="url(#aucur)" stroke-width="1.39"/><polyline points="171.8,28.8 168.6,43.7 165.8,58.6 163.6,73.4 162.0,88.3 161.3,103.2 161.4,118.1 162.3,133.0 163.9,147.8 166.3,162.7 169.1,177.6" fill="none" stroke="url(#aucur)" stroke-width="1.99"/><polyline points="170.8,28.8 167.7,43.7 165.1,58.6 163.3,73.4 162.3,88.3 162.1,103.2 162.8,118.1 164.3,133.0 166.6,147.8 169.4,162.7 172.8,177.6" fill="none" stroke="url(#aucur)" stroke-width="1.27"/><polyline points="169.8,28.8 167.0,43.7 164.9,58.6 163.6,73.4 163.1,88.3 163.6,103.2 164.9,118.1 167.1,133.0 169.9,147.8 173.2,162.7 176.9,177.6" fill="none" stroke="url(#aucur)" stroke-width="1.84"/><polyline points="169.2,28.8 166.9,43.7 165.3,58.6 164.6,73.4 164.7,88.3 165.8,103.2 167.8,118.1 170.5,133.0 173.7,147.8 177.3,162.7 181.2,177.6" fill="none" stroke="url(#aucur)" stroke-width="1.24"/><polyline points="169.2,28.8 167.3,43.7 166.4,58.6 166.3,73.4 167.1,88.3 168.8,103.2 171.3,118.1 174.4,133.0 177.9,147.8 181.6,162.7 185.4,177.6" fill="none" stroke="url(#aucur)" stroke-width="1.46"/><polyline points="169.7,28.8 168.5,43.7 168.2,58.6 168.8,73.4 170.2,88.3 172.4,103.2 175.2,118.1 178.6,133.0 182.2,147.8 185.9,162.7 189.5,177.6" fill="none" stroke="url(#aucur)" stroke-width="1.17"/><polyline points="171.1,28.8 170.5,43.7 170.8,58.6 171.9,73.4 173.8,88.3 176.4,103.2 179.4,118.1 182.8,133.0 186.4,147.8 189.9,162.7 193.1,177.6" fill="none" stroke="url(#aucur)" stroke-width="1.87"/><polyline points="173.1,28.8 173.1,43.7 174.0,58.6 175.6,73.4 177.8,88.3 180.5,103.2 183.7,118.1 187.0,133.0 190.3,147.8 193.4,162.7 196.1,177.6" fill="none" stroke="url(#aucur)" stroke-width="1.85"/><polyline points="175.8,28.8 176.4,43.7 177.6,58.6 179.5,73.4 181.9,88.3 184.7,103.2 187.7,118.1 190.7,133.0 193.7,147.8 196.3,162.7 198.5,177.6" fill="none" stroke="url(#aucur)" stroke-width="1.23"/><polyline points="179.0,28.8 180.0,43.7 181.5,58.6 183.5,73.4 185.9,88.3 188.6,103.2 191.3,118.1 194.0,133.0 196.5,147.8 198.6,162.7 200.2,177.6" fill="none" stroke="url(#aucur)" stroke-width="1.57"/><polyline points="182.5,28.8 183.7,43.7 185.4,58.6 187.4,73.4 189.7,88.3 192.1,103.2 194.5,118.1 196.7,133.0 198.7,147.8 200.2,162.7 201.3,177.6" fill="none" stroke="url(#aucur)" stroke-width="1.33"/><polyline points="186.2,28.8 187.5,43.7 189.1,58.6 191.0,73.4 193.1,88.3 195.1,103.2 197.1,118.1 198.8,133.0 200.2,147.8 201.3,162.7 201.9,177.6" fill="none" stroke="url(#aucur)" stroke-width="1.54"/><polyline points="189.8,28.8 191.1,43.7 192.6,58.6 194.2,73.4 196.0,88.3 197.6,103.2 199.1,118.1 200.4,133.0 201.4,147.8 202.0,162.7 202.2,177.6" fill="none" stroke="url(#aucur)" stroke-width="1.60"/><polyline points="193.1,28.8 194.3,43.7 195.6,58.6 197.0,73.4 198.3,88.3 199.6,103.2 200.7,118.1 201.6,133.0 202.1,147.8 202.4,162.7 202.3,177.6" fill="none" stroke="url(#aucur)" stroke-width="1.20"/><polyline points="196.1,28.8 197.1,43.7 198.2,58.6 199.3,73.4 200.3,88.3 201.2,103.2 202.0,118.1 202.5,133.0 202.8,147.8 202.8,162.7 202.5,177.6" fill="none" stroke="url(#aucur)" stroke-width="1.88"/><polyline points="198.8,28.8 199.6,43.7 200.4,58.6 201.2,73.4 202.0,88.3 202.6,103.2 203.0,118.1 203.3,133.0 203.4,147.8 203.3,162.7 202.9,177.6" fill="none" stroke="url(#aucur)" stroke-width="1.35"/><polyline points="201.1,28.8 201.7,43.7 202.4,58.6 203.0,73.4 203.5,88.3 203.9,103.2 204.1,118.1 204.2,133.0 204.2,147.8 204.0,162.7 203.6,177.6" fill="none" stroke="url(#aucur)" stroke-width="1.50"/><polyline points="203.1,28.8 203.7,43.7 204.2,58.6 204.6,73.4 204.9,88.3 205.2,103.2 205.3,118.1 205.3,133.0 205.2,147.8 204.9,162.7 204.6,177.6" fill="none" stroke="url(#aucur)" stroke-width="1.15"/><polyline points="205.1,28.8 205.5,43.7 206.0,58.6 206.3,73.4 206.5,88.3 206.7,103.2 206.7,118.1 206.6,133.0 206.4,147.8 206.1,162.7 205.8,177.6" fill="none" stroke="url(#aucur)" stroke-width="1.10"/><polyline points="207.1,28.8 207.5,43.7 207.9,58.6 208.2,73.4 208.4,88.3 208.4,103.2 208.4,118.1 208.2,133.0 207.9,147.8 207.5,162.7 207.1,177.6" fill="none" stroke="url(#aucur)" stroke-width="1.28"/><polyline points="209.2,28.8 209.7,43.7 210.0,58.6 210.3,73.4 210.4,88.3 210.4,103.2 210.2,118.1 209.9,133.0 209.5,147.8 209.0,162.7 208.5,177.6" fill="none" stroke="url(#aucur)" stroke-width="1.41"/><polyline points="211.6,28.8 212.1,43.7 212.5,58.6 212.7,73.4 212.7,88.3 212.6,103.2 212.2,118.1 211.7,133.0 211.1,147.8 210.4,162.7 209.7,177.6" fill="none" stroke="url(#aucur)" stroke-width="1.94"/><polyline points="214.3,28.8 214.8,43.7 215.2,58.6 215.3,73.4 215.1,88.3 214.8,103.2 214.2,118.1 213.5,133.0 212.6,147.8 211.6,162.7 210.6,177.6" fill="none" stroke="url(#aucur)" stroke-width="1.90"/><polyline points="217.3,28.8 217.8,43.7 218.0,58.6 217.9,73.4 217.6,88.3 216.9,103.2 216.0,118.1 214.9,133.0 213.7,147.8 212.5,162.7 211.2,177.6" fill="none" stroke="url(#aucur)" stroke-width="1.53"/><polyline points="220.5,28.8 220.9,43.7 220.9,58.6 220.5,73.4 219.8,88.3 218.8,103.2 217.5,118.1 216.0,133.0 214.5,147.8 212.9,162.7 211.4,177.6" fill="none" stroke="url(#aucur)" stroke-width="1.51"/><polyline points="223.9,28.8 224.0,43.7 223.7,58.6 222.9,73.4 221.7,88.3 220.3,103.2 218.5,118.1 216.6,133.0 214.7,147.8 212.9,162.7 211.2,177.6" fill="none" stroke="url(#aucur)" stroke-width="1.70"/><line x1="19" y1="197" x2="221" y2="197" stroke="#EAE6DF" stroke-width="1" opacity="0.35"/></svg>