<svg viewBox="0 0 240 240" xmlns="http://www.w3.org/2000/svg"><defs><linearGradient id="ausky" x1="0" y1="0" x2="0" y2="1"><stop offset="0%" stop-color="#0A0A0B"/><stop offset="70%" stop-color="#15171A"/><stop offset="100%" stop-color="#0C0D0E"/></linearGradient><linearGradient id="aucur" x1="0" y1="0" x2="0" y2="1"><stop offset="0%" stop-color="#5FE8B0" stop-opacity="0"/><stop offset="55%" stop-color="#5FE8B0" stop-opacity="0.42"/><stop offset="88%" stop-color="#B7FFE4" stop-opacity="0.92"/><stop offset="100%" stop-color="#5FE8B0" stop-opacity="0.30"/></linearGradient><radialGradient id="auglow" cx="50%" cy="62%" r="52%"><stop offset="0%" stop-color="#5FE8B0" stop-opacity="0.30"/><stop offset="100%" stop-color="#5FE8B0" stop-opacity="0"/></radialGradient></defs><rect width="240" height="240" fill="url(#ausky)"/><circle cx="208.9" cy="49.6" r="0.63" fill="#EAE6DF" opacity="0.52"/><circle cx="171.9" cy="158.2" r="0.77" fill="#EAE6DF" opacity="0.58"/><circle cx="6.4" cy="75.6" r="0.57" fill="#EAE6DF" opacity="0.21"/><circle cx="1.4" cy="143.5" r="0.84" fill="#EAE6DF" opacity="0.53"/><circle cx="75.7" cy="121.9" r="0.46" fill="#EAE6DF" opacity="0.51"/><circle cx="67.1" cy="135.2" r="0.84" fill="#EAE6DF" opacity="0.61"/><circle cx="211.9" cy="157.7" r="0.69" fill="#EAE6DF" opacity="0.42"/><circle cx="221.6" cy="15.5" r="0.50" fill="#EAE6DF" opacity="0.45"/><circle cx="114.7" cy="137.0" r="0.41" fill="#EAE6DF" opacity="0.21"/><circle cx="30.4" cy="166.4" r="0.37" fill="#EAE6DF" opacity="0.28"/><circle cx="90.5" cy="107.7" r="0.73" fill="#EAE6DF" opacity="0.21"/><circle cx="223.5" cy="131.8" r="0.48" fill="#EAE6DF" opacity="0.26"/><circle cx="143.0" cy="102.8" r="0.45" fill="#EAE6DF" opacity="0.25"/><circle cx="184.0" cy="116.2" r="0.74" fill="#EAE6DF" opacity="0.28"/><circle cx="173.6" cy="12.9" r="0.30" fill="#EAE6DF" opacity="0.26"/><circle cx="187.7" cy="93.3" r="0.64" fill="#EAE6DF" opacity="0.44"/><circle cx="152.6" cy="55.8" r="0.70" fill="#EAE6DF" opacity="0.19"/><circle cx="90.5" cy="9.4" r="0.37" fill="#EAE6DF" opacity="0.58"/><circle cx="144.6" cy="136.7" r="0.63" fill="#EAE6DF" opacity="0.43"/><circle cx="190.8" cy="107.7" r="0.58" fill="#EAE6DF" opacity="0.42"/><circle cx="136.5" cy="59.1" r="0.67" fill="#EAE6DF" opacity="0.36"/><circle cx="157.1" cy="83.8" r="0.71" fill="#EAE6DF" opacity="0.48"/><circle cx="9.5" cy="135.2" r="0.79" fill="#EAE6DF" opacity="0.33"/><circle cx="175.9" cy="146.1" r="0.57" fill="#EAE6DF" opacity="0.24"/><circle cx="175.6" cy="144.9" r="0.47" fill="#EAE6DF" opacity="0.28"/><circle cx="184.0" cy="89.2" r="0.31" fill="#EAE6DF" opacity="0.27"/><circle cx="52.2" cy="100.5" r="0.61" fill="#EAE6DF" opacity="0.41"/><circle cx="81.9" cy="67.8" r="0.58" fill="#EAE6DF" opacity="0.43"/><circle cx="135.6" cy="123.6" r="0.85" fill="#EAE6DF" opacity="0.51"/><circle cx="117.7" cy="168.8" r="0.37" fill="#EAE6DF" opacity="0.60"/><circle cx="120.2" cy="83.5" r="0.77" fill="#EAE6DF" opacity="0.45"/><circle cx="197.2" cy="63.8" r="0.60" fill="#EAE6DF" opacity="0.47"/><circle cx="56.7" cy="132.0" r="0.39" fill="#EAE6DF" opacity="0.24"/><circle cx="64.7" cy="140.0" r="0.56" fill="#EAE6DF" opacity="0.20"/><circle cx="47.5" cy="97.4" r="0.33" fill="#EAE6DF" opacity="0.32"/><circle cx="50.8" cy="119.1" r="0.38" fill="#EAE6DF" opacity="0.34"/><circle cx="107.9" cy="155.8" r="0.52" fill="#EAE6DF" opacity="0.24"/><circle cx="101.2" cy="64.2" r="0.61" fill="#EAE6DF" opacity="0.23"/><circle cx="101.4" cy="113.0" r="0.53" fill="#EAE6DF" opacity="0.60"/><circle cx="87.3" cy="150.8" r="0.48" fill="#EAE6DF" opacity="0.36"/><circle cx="169.2" cy="93.1" r="0.81" fill="#EAE6DF" opacity="0.57"/><circle cx="68.3" cy="55.8" r="0.65" fill="#EAE6DF" opacity="0.53"/><circle cx="26.9" cy="156.6" r="0.49" fill="#EAE6DF" opacity="0.24"/><circle cx="63.7" cy="138.0" r="0.44" fill="#EAE6DF" opacity="0.23"/><circle cx="143.3" cy="157.7" r="0.47" fill="#EAE6DF" opacity="0.40"/><circle cx="93.3" cy="162.8" r="0.77" fill="#EAE6DF" opacity="0.39"/><ellipse cx="120" cy="132" rx="132" ry="72" fill="url(#auglow)"/><polygon points="4.8,86.2 8.6,86.9 12.5,87.5 16.3,88.1 20.2,88.4 24.0,88.6 27.8,88.7 31.7,88.5 35.5,88.2 39.4,87.7 43.2,87.1 47.0,86.3 50.9,85.3 54.7,84.2 58.6,83.1 62.4,81.8 66.2,80.5 70.1,79.2 73.9,77.9 77.8,76.6 81.6,75.4 85.4,74.2 89.3,73.2 93.1,72.2 97.0,71.4 100.8,70.7 104.6,70.1 108.5,69.7 112.3,69.4 116.2,69.1 120.0,69.0 123.8,69.0 127.7,69.0 131.5,69.1 135.4,69.2 139.2,69.4 143.0,69.5 146.9,69.7 150.7,69.8 154.6,69.9 158.4,69.9 162.2,70.0 166.1,70.0 169.9,69.9 173.8,69.9 177.6,69.9 181.4,69.9 185.3,69.9 189.1,70.0 193.0,70.2 196.8,70.4 200.6,70.8 204.5,71.4 208.3,72.1 212.2,73.0 216.0,74.1 219.8,75.3 223.7,76.8 227.5,78.5 231.4,80.4 235.2,82.5 235.2,127.2 231.4,126.1 227.5,125.3 223.7,124.6 219.8,124.1 216.0,123.9 212.2,123.8 208.3,124.0 204.5,124.3 200.6,124.8 196.8,125.4 193.0,126.2 189.1,127.0 185.3,127.9 181.4,128.9 177.6,129.9 173.8,130.8 169.9,131.8 166.1,132.7 162.2,133.6 158.4,134.4 154.6,135.1 150.7,135.8 146.9,136.4 143.0,136.9 139.2,137.4 135.4,137.9 131.5,138.3 127.7,138.7 123.8,139.1 120.0,139.6 116.2,140.1 112.3,140.6 108.5,141.2 104.6,141.8 100.8,142.6 97.0,143.4 93.1,144.2 89.3,145.2 85.4,146.2 81.6,147.2 77.8,148.3 73.9,149.3 70.1,150.3 66.2,151.3 62.4,152.3 58.6,153.1 54.7,153.8 50.9,154.3 47.0,154.7 43.2,154.9 39.4,154.9 35.5,154.7 31.7,154.3 27.8,153.7 24.0,152.8 20.2,151.8 16.3,150.5 12.5,149.1 8.6,147.6 4.8,145.9" fill="url(#aucur)" opacity="0.55"/><line x1="8.6" y1="147.6" x2="8.6" y2="86.9" stroke="#5FE8B0" stroke-width="1.67" opacity="0.053"/><line x1="16.3" y1="150.5" x2="16.3" y2="88.1" stroke="#5FE8B0" stroke-width="1.18" opacity="0.116"/><line x1="24.0" y1="152.8" x2="24.0" y2="88.6" stroke="#5FE8B0" stroke-width="1.00" opacity="0.136"/><line x1="39.4" y1="154.9" x2="39.4" y2="87.7" stroke="#5FE8B0" stroke-width="1.52" opacity="0.080"/><line x1="47.0" y1="154.7" x2="47.0" y2="86.3" stroke="#5FE8B0" stroke-width="0.82" opacity="0.047"/><line x1="54.7" y1="153.8" x2="54.7" y2="84.2" stroke="#5FE8B0" stroke-width="1.46" opacity="0.140"/><line x1="58.6" y1="153.1" x2="58.6" y2="83.1" stroke="#5FE8B0" stroke-width="1.36" opacity="0.058"/><line x1="70.1" y1="150.3" x2="70.1" y2="79.2" stroke="#5FE8B0" stroke-width="0.70" opacity="0.087"/><line x1="81.6" y1="147.2" x2="81.6" y2="75.4" stroke="#5FE8B0" stroke-width="1.66" opacity="0.105"/><line x1="89.3" y1="145.2" x2="89.3" y2="73.2" stroke="#5FE8B0" stroke-width="0.99" opacity="0.047"/><line x1="100.8" y1="142.6" x2="100.8" y2="70.7" stroke="#5FE8B0" stroke-width="0.60" opacity="0.114"/><line x1="108.5" y1="141.2" x2="108.5" y2="69.7" stroke="#5FE8B0" stroke-width="0.56" opacity="0.045"/><line x1="116.2" y1="140.1" x2="116.2" y2="69.1" stroke="#5FE8B0" stroke-width="0.88" opacity="0.043"/><line x1="123.8" y1="139.1" x2="123.8" y2="69.0" stroke="#5FE8B0" stroke-width="1.46" opacity="0.111"/><line x1="131.5" y1="138.3" x2="131.5" y2="69.1" stroke="#5FE8B0" stroke-width="0.94" opacity="0.142"/><line x1="139.2" y1="137.4" x2="139.2" y2="69.4" stroke="#5FE8B0" stroke-width="1.31" opacity="0.124"/><line x1="146.9" y1="136.4" x2="146.9" y2="69.7" stroke="#5FE8B0" stroke-width="1.25" opacity="0.079"/><line x1="158.4" y1="134.4" x2="158.4" y2="69.9" stroke="#5FE8B0" stroke-width="1.42" opacity="0.079"/><line x1="169.9" y1="131.8" x2="169.9" y2="69.9" stroke="#5FE8B0" stroke-width="0.79" opacity="0.068"/><line x1="177.6" y1="129.9" x2="177.6" y2="69.9" stroke="#5FE8B0" stroke-width="0.65" opacity="0.135"/><line x1="181.4" y1="128.9" x2="181.4" y2="69.9" stroke="#5FE8B0" stroke-width="1.62" opacity="0.061"/><line x1="196.8" y1="125.4" x2="196.8" y2="70.4" stroke="#5FE8B0" stroke-width="0.87" opacity="0.118"/><line x1="204.5" y1="124.3" x2="204.5" y2="71.4" stroke="#5FE8B0" stroke-width="1.02" opacity="0.090"/><line x1="216.0" y1="123.9" x2="216.0" y2="74.1" stroke="#5FE8B0" stroke-width="1.58" opacity="0.063"/><line x1="223.7" y1="124.6" x2="223.7" y2="76.8" stroke="#5FE8B0" stroke-width="1.62" opacity="0.042"/><line x1="227.5" y1="125.3" x2="227.5" y2="78.5" stroke="#5FE8B0" stroke-width="1.29" opacity="0.049"/><polygon points="4.8,76.9 8.6,76.2 12.5,75.4 16.3,74.4 20.2,73.3 24.0,72.1 27.8,70.8 31.7,69.6 35.5,68.4 39.4,67.2 43.2,66.2 47.0,65.3 50.9,64.6 54.7,64.0 58.6,63.7 62.4,63.6 66.2,63.8 70.1,64.2 73.9,64.8 77.8,65.6 81.6,66.6 85.4,67.8 89.3,69.2 93.1,70.7 97.0,72.2 100.8,73.9 104.6,75.5 108.5,77.2 112.3,78.8 116.2,80.5 120.0,82.0 123.8,83.5 127.7,84.8 131.5,86.1 135.4,87.3 139.2,88.4 143.0,89.5 146.9,90.5 150.7,91.4 154.6,92.3 158.4,93.3 162.2,94.2 166.1,95.2 169.9,96.3 173.8,97.5 177.6,98.7 181.4,100.1 185.3,101.6 189.1,103.2 193.0,104.9 196.8,106.7 200.6,108.6 204.5,110.6 208.3,112.5 212.2,114.5 216.0,116.4 219.8,118.3 223.7,120.0 227.5,121.5 231.4,122.9 235.2,124.0 235.2,171.7 231.4,169.9 227.5,167.9 223.7,165.9 219.8,163.7 216.0,161.5 212.2,159.3 208.3,157.1 204.5,155.0 200.6,153.0 196.8,151.1 193.0,149.4 189.1,147.8 185.3,146.4 181.4,145.3 177.6,144.3 173.8,143.4 169.9,142.8 166.1,142.3 162.2,142.0 158.4,141.7 154.6,141.6 150.7,141.5 146.9,141.5 143.0,141.4 139.2,141.4 135.4,141.4 131.5,141.3 127.7,141.2 123.8,141.0 120.0,140.8 116.2,140.6 112.3,140.3 108.5,140.0 104.6,139.7 100.8,139.5 97.0,139.3 93.1,139.1 89.3,139.1 85.4,139.2 81.6,139.5 77.8,139.9 73.9,140.5 70.1,141.3 66.2,142.4 62.4,143.7 58.6,145.1 54.7,146.8 50.9,148.7 47.0,150.7 43.2,152.9 39.4,155.2 35.5,157.5 31.7,159.9 27.8,162.3 24.0,164.6 20.2,166.8 16.3,168.8 12.5,170.7 8.6,172.4 4.8,173.8" fill="url(#aucur)" opacity="0.85"/><line x1="8.6" y1="172.4" x2="8.6" y2="76.2" stroke="#5FE8B0" stroke-width="1.28" opacity="0.061"/><line x1="12.5" y1="170.7" x2="12.5" y2="75.4" stroke="#5FE8B0" stroke-width="1.38" opacity="0.213"/><line x1="20.2" y1="166.8" x2="20.2" y2="73.3" stroke="#5FE8B0" stroke-width="1.06" opacity="0.053"/><line x1="27.8" y1="162.3" x2="27.8" y2="70.8" stroke="#5FE8B0" stroke-width="0.74" opacity="0.139"/><line x1="35.5" y1="157.5" x2="35.5" y2="68.4" stroke="#5FE8B0" stroke-width="0.84" opacity="0.197"/><line x1="39.4" y1="155.2" x2="39.4" y2="67.2" stroke="#5FE8B0" stroke-width="1.46" opacity="0.161"/><line x1="47.0" y1="150.7" x2="47.0" y2="65.3" stroke="#5FE8B0" stroke-width="1.05" opacity="0.135"/><line x1="54.7" y1="146.8" x2="54.7" y2="64.0" stroke="#5FE8B0" stroke-width="0.73" opacity="0.097"/><line x1="62.4" y1="143.7" x2="62.4" y2="63.6" stroke="#5FE8B0" stroke-width="1.20" opacity="0.116"/><line x1="70.1" y1="141.3" x2="70.1" y2="64.2" stroke="#5FE8B0" stroke-width="1.04" opacity="0.131"/><line x1="81.6" y1="139.5" x2="81.6" y2="66.6" stroke="#5FE8B0" stroke-width="1.58" opacity="0.046"/><line x1="89.3" y1="139.1" x2="89.3" y2="69.2" stroke="#5FE8B0" stroke-width="0.59" opacity="0.058"/><line x1="100.8" y1="139.5" x2="100.8" y2="73.9" stroke="#5FE8B0" stroke-width="1.25" opacity="0.133"/><line x1="112.3" y1="140.3" x2="112.3" y2="78.8" stroke="#5FE8B0" stroke-width="1.13" opacity="0.199"/><line x1="123.8" y1="141.0" x2="123.8" y2="83.5" stroke="#5FE8B0" stroke-width="1.68" opacity="0.053"/><line x1="131.5" y1="141.3" x2="131.5" y2="86.1" stroke="#5FE8B0" stroke-width="0.74" opacity="0.168"/><line x1="139.2" y1="141.4" x2="139.2" y2="88.4" stroke="#5FE8B0" stroke-width="0.92" opacity="0.068"/><line x1="150.7" y1="141.5" x2="150.7" y2="91.4" stroke="#5FE8B0" stroke-width="0.63" opacity="0.178"/><line x1="158.4" y1="141.7" x2="158.4" y2="93.3" stroke="#5FE8B0" stroke-width="0.61" opacity="0.178"/><line x1="162.2" y1="142.0" x2="162.2" y2="94.2" stroke="#5FE8B0" stroke-width="1.10" opacity="0.170"/><line x1="169.9" y1="142.8" x2="169.9" y2="96.3" stroke="#5FE8B0" stroke-width="0.75" opacity="0.143"/><line x1="181.4" y1="145.3" x2="181.4" y2="100.1" stroke="#5FE8B0" stroke-width="1.54" opacity="0.077"/><line x1="189.1" y1="147.8" x2="189.1" y2="103.2" stroke="#5FE8B0" stroke-width="1.36" opacity="0.061"/><line x1="193.0" y1="149.4" x2="193.0" y2="104.9" stroke="#5FE8B0" stroke-width="1.57" opacity="0.107"/><line x1="204.5" y1="155.0" x2="204.5" y2="110.6" stroke="#5FE8B0" stroke-width="1.49" opacity="0.166"/><line x1="216.0" y1="161.5" x2="216.0" y2="116.4" stroke="#5FE8B0" stroke-width="0.75" opacity="0.125"/><line x1="219.8" y1="163.7" x2="219.8" y2="118.3" stroke="#5FE8B0" stroke-width="0.71" opacity="0.092"/><line x1="227.5" y1="167.9" x2="227.5" y2="121.5" stroke="#5FE8B0" stroke-width="0.72" opacity="0.138"/><polygon points="4.8,125.7 8.6,125.3 12.5,125.1 16.3,125.0 20.2,125.0 24.0,125.2 27.8,125.5 31.7,126.0 35.5,126.6 39.4,127.3 43.2,128.1 47.0,129.0 50.9,130.0 54.7,131.0 58.6,132.0 62.4,133.0 66.2,134.0 70.1,134.9 73.9,135.7 77.8,136.5 81.6,137.2 85.4,137.8 89.3,138.2 93.1,138.5 97.0,138.8 100.8,138.9 104.6,138.8 108.5,138.7 112.3,138.5 116.2,138.2 120.0,137.9 123.8,137.5 127.7,137.1 131.5,136.6 135.4,136.2 139.2,135.7 143.0,135.3 146.9,134.9 150.7,134.5 154.6,134.1 158.4,133.8 162.2,133.4 166.1,133.1 169.9,132.8 173.8,132.5 177.6,132.1 181.4,131.7 185.3,131.2 189.1,130.7 193.0,130.1 196.8,129.3 200.6,128.5 204.5,127.5 208.3,126.3 212.2,125.1 216.0,123.7 219.8,122.1 223.7,120.5 227.5,118.7 231.4,116.8 235.2,114.8 235.2,172.5 231.4,173.8 227.5,175.0 223.7,176.1 219.8,177.1 216.0,177.8 212.2,178.5 208.3,178.9 204.5,179.2 200.6,179.4 196.8,179.4 193.0,179.3 189.1,179.0 185.3,178.7 181.4,178.3 177.6,177.8 173.8,177.2 169.9,176.7 166.1,176.1 162.2,175.5 158.4,174.9 154.6,174.4 150.7,173.9 146.9,173.4 143.0,173.0 139.2,172.7 135.4,172.3 131.5,172.0 127.7,171.7 123.8,171.4 120.0,171.1 116.2,170.8 112.3,170.5 108.5,170.1 104.6,169.7 100.8,169.2 97.0,168.6 93.1,167.9 89.3,167.2 85.4,166.4 81.6,165.5 77.8,164.6 73.9,163.6 70.1,162.6 66.2,161.5 62.4,160.5 58.6,159.4 54.7,158.4 50.9,157.5 47.0,156.7 43.2,155.9 39.4,155.3 35.5,154.8 31.7,154.5 27.8,154.4 24.0,154.4 20.2,154.7 16.3,155.1 12.5,155.7 8.6,156.4 4.8,157.4" fill="url(#aucur)" opacity="0.45"/><line x1="8.6" y1="156.4" x2="8.6" y2="125.3" stroke="#5FE8B0" stroke-width="1.11" opacity="0.037"/><line x1="12.5" y1="155.7" x2="12.5" y2="125.1" stroke="#5FE8B0" stroke-width="1.41" opacity="0.054"/><line x1="16.3" y1="155.1" x2="16.3" y2="125.0" stroke="#5FE8B0" stroke-width="1.50" opacity="0.113"/><line x1="24.0" y1="154.4" x2="24.0" y2="125.2" stroke="#5FE8B0" stroke-width="0.58" opacity="0.045"/><line x1="35.5" y1="154.8" x2="35.5" y2="126.6" stroke="#5FE8B0" stroke-width="1.39" opacity="0.030"/><line x1="47.0" y1="156.7" x2="47.0" y2="129.0" stroke="#5FE8B0" stroke-width="0.65" opacity="0.117"/><line x1="58.6" y1="159.4" x2="58.6" y2="132.0" stroke="#5FE8B0" stroke-width="1.06" opacity="0.099"/><line x1="70.1" y1="162.6" x2="70.1" y2="134.9" stroke="#5FE8B0" stroke-width="0.62" opacity="0.040"/><line x1="81.6" y1="165.5" x2="81.6" y2="137.2" stroke="#5FE8B0" stroke-width="1.62" opacity="0.102"/><line x1="85.4" y1="166.4" x2="85.4" y2="137.8" stroke="#5FE8B0" stroke-width="1.15" opacity="0.049"/><line x1="93.1" y1="167.9" x2="93.1" y2="138.5" stroke="#5FE8B0" stroke-width="0.63" opacity="0.094"/><line x1="97.0" y1="168.6" x2="97.0" y2="138.8" stroke="#5FE8B0" stroke-width="0.83" opacity="0.044"/><line x1="108.5" y1="170.1" x2="108.5" y2="138.7" stroke="#5FE8B0" stroke-width="0.90" opacity="0.047"/><line x1="116.2" y1="170.8" x2="116.2" y2="138.2" stroke="#5FE8B0" stroke-width="1.01" opacity="0.073"/><line x1="123.8" y1="171.4" x2="123.8" y2="137.5" stroke="#5FE8B0" stroke-width="0.96" opacity="0.088"/><line x1="135.4" y1="172.3" x2="135.4" y2="136.2" stroke="#5FE8B0" stroke-width="1.07" opacity="0.045"/><line x1="146.9" y1="173.4" x2="146.9" y2="134.9" stroke="#5FE8B0" stroke-width="1.05" opacity="0.063"/><line x1="154.6" y1="174.4" x2="154.6" y2="134.1" stroke="#5FE8B0" stroke-width="1.52" opacity="0.092"/><line x1="166.1" y1="176.1" x2="166.1" y2="133.1" stroke="#5FE8B0" stroke-width="0.61" opacity="0.050"/><line x1="173.8" y1="177.2" x2="173.8" y2="132.5" stroke="#5FE8B0" stroke-width="0.88" opacity="0.104"/><line x1="177.6" y1="177.8" x2="177.6" y2="132.1" stroke="#5FE8B0" stroke-width="0.72" opacity="0.107"/><line x1="181.4" y1="178.3" x2="181.4" y2="131.7" stroke="#5FE8B0" stroke-width="1.68" opacity="0.067"/><line x1="193.0" y1="179.3" x2="193.0" y2="130.1" stroke="#5FE8B0" stroke-width="1.36" opacity="0.083"/><line x1="200.6" y1="179.4" x2="200.6" y2="128.5" stroke="#5FE8B0" stroke-width="1.40" opacity="0.045"/><line x1="204.5" y1="179.2" x2="204.5" y2="127.5" stroke="#5FE8B0" stroke-width="0.86" opacity="0.061"/><line x1="208.3" y1="178.9" x2="208.3" y2="126.3" stroke="#5FE8B0" stroke-width="1.03" opacity="0.072"/><line x1="219.8" y1="177.1" x2="219.8" y2="122.1" stroke="#5FE8B0" stroke-width="1.24" opacity="0.026"/><polygon points="0,240 0,213.6 15.4,199.9 31.3,200.7 49.0,194.9 85.0,203.2 101.7,198.6 130.7,197.7 151.7,195.0 167.8,202.6 205.1,203.9 225.0,196.8 240.0,196.7 240,240" fill="#08090A"/></svg>