<svg viewBox="0 0 240 240" xmlns="http://www.w3.org/2000/svg"><defs><linearGradient id="biagua" x1="0" y1="0" x2="0" y2="1"><stop offset="0%" stop-color="#05070A"/><stop offset="55%" stop-color="#0A1016"/><stop offset="100%" stop-color="#04070A"/></linearGradient><radialGradient id="biglow" cx="50%" cy="50%" r="50%"><stop offset="0%" stop-color="#5FE8B0" stop-opacity="0.34"/><stop offset="100%" stop-color="#5FE8B0" stop-opacity="0"/></radialGradient></defs><rect width="240" height="240" fill="url(#biagua)"/><ellipse cx="100" cy="43" rx="71" ry="17" fill="url(#biglow)"/><line x1="15.0" y1="38.2" x2="18.9" y2="36.2" stroke="#CFFFEC" stroke-width="0.71" stroke-linecap="round" opacity="0.10"/><line x1="18.9" y1="36.2" x2="22.8" y2="34.5" stroke="#CFFFEC" stroke-width="0.75" stroke-linecap="round" opacity="0.12"/><line x1="22.8" y1="34.5" x2="26.6" y2="33.2" stroke="#CFFFEC" stroke-width="0.82" stroke-linecap="round" opacity="0.15"/><line x1="26.6" y1="33.2" x2="30.5" y2="32.3" stroke="#CFFFEC" stroke-width="0.90" stroke-linecap="round" opacity="0.19"/><line x1="30.5" y1="32.3" x2="34.4" y2="31.9" stroke="#CFFFEC" stroke-width="1.00" stroke-linecap="round" opacity="0.23"/><line x1="34.4" y1="31.9" x2="38.2" y2="31.9" stroke="#CFFFEC" stroke-width="1.11" stroke-linecap="round" opacity="0.27"/><line x1="38.2" y1="31.9" x2="42.1" y2="32.3" stroke="#CFFFEC" stroke-width="1.23" stroke-linecap="round" opacity="0.32"/><line x1="42.1" y1="32.3" x2="46.0" y2="33.0" stroke="#CFFFEC" stroke-width="1.35" stroke-linecap="round" opacity="0.37"/><line x1="46.0" y1="33.0" x2="49.8" y2="33.9" stroke="#CFFFEC" stroke-width="1.47" stroke-linecap="round" opacity="0.43"/><line x1="49.8" y1="33.9" x2="53.7" y2="35.0" stroke="#CFFFEC" stroke-width="1.60" stroke-linecap="round" opacity="0.48"/><line x1="53.7" y1="35.0" x2="57.5" y2="36.1" stroke="#CFFFEC" stroke-width="1.73" stroke-linecap="round" opacity="0.53"/><line x1="57.5" y1="36.1" x2="61.4" y2="37.2" stroke="#CFFFEC" stroke-width="1.85" stroke-linecap="round" opacity="0.59"/><line x1="61.4" y1="37.2" x2="65.3" y2="38.1" stroke="#CFFFEC" stroke-width="1.97" stroke-linecap="round" opacity="0.64"/><line x1="65.3" y1="38.1" x2="69.1" y2="38.9" stroke="#CFFFEC" stroke-width="2.09" stroke-linecap="round" opacity="0.68"/><line x1="69.1" y1="38.9" x2="73.0" y2="39.5" stroke="#CFFFEC" stroke-width="2.19" stroke-linecap="round" opacity="0.73"/><line x1="73.0" y1="39.5" x2="76.9" y2="39.9" stroke="#CFFFEC" stroke-width="2.29" stroke-linecap="round" opacity="0.77"/><line x1="76.9" y1="39.9" x2="80.7" y2="40.1" stroke="#CFFFEC" stroke-width="2.37" stroke-linecap="round" opacity="0.80"/><line x1="80.7" y1="40.1" x2="84.6" y2="40.3" stroke="#CFFFEC" stroke-width="2.45" stroke-linecap="round" opacity="0.84"/><line x1="84.6" y1="40.3" x2="88.5" y2="40.5" stroke="#CFFFEC" stroke-width="2.51" stroke-linecap="round" opacity="0.86"/><line x1="88.5" y1="40.5" x2="92.3" y2="40.8" stroke="#CFFFEC" stroke-width="2.55" stroke-linecap="round" opacity="0.88"/><line x1="92.3" y1="40.8" x2="96.2" y2="41.2" stroke="#CFFFEC" stroke-width="2.58" stroke-linecap="round" opacity="0.89"/><line x1="96.2" y1="41.2" x2="100.0" y2="41.8" stroke="#CFFFEC" stroke-width="2.60" stroke-linecap="round" opacity="0.90"/><line x1="100.0" y1="41.8" x2="103.9" y2="42.7" stroke="#CFFFEC" stroke-width="2.60" stroke-linecap="round" opacity="0.90"/><line x1="103.9" y1="42.7" x2="107.8" y2="43.8" stroke="#CFFFEC" stroke-width="2.58" stroke-linecap="round" opacity="0.89"/><line x1="107.8" y1="43.8" x2="111.6" y2="45.1" stroke="#CFFFEC" stroke-width="2.55" stroke-linecap="round" opacity="0.88"/><line x1="111.6" y1="45.1" x2="115.5" y2="46.6" stroke="#CFFFEC" stroke-width="2.51" stroke-linecap="round" opacity="0.86"/><line x1="115.5" y1="46.6" x2="119.4" y2="48.2" stroke="#CFFFEC" stroke-width="2.45" stroke-linecap="round" opacity="0.84"/><line x1="119.4" y1="48.2" x2="123.2" y2="49.8" stroke="#CFFFEC" stroke-width="2.37" stroke-linecap="round" opacity="0.80"/><line x1="123.2" y1="49.8" x2="127.1" y2="51.4" stroke="#CFFFEC" stroke-width="2.29" stroke-linecap="round" opacity="0.77"/><line x1="127.1" y1="51.4" x2="130.9" y2="52.7" stroke="#CFFFEC" stroke-width="2.19" stroke-linecap="round" opacity="0.73"/><line x1="130.9" y1="52.7" x2="134.8" y2="53.7" stroke="#CFFFEC" stroke-width="2.09" stroke-linecap="round" opacity="0.68"/><line x1="134.8" y1="53.7" x2="138.7" y2="54.3" stroke="#CFFFEC" stroke-width="1.97" stroke-linecap="round" opacity="0.64"/><line x1="138.7" y1="54.3" x2="142.5" y2="54.5" stroke="#CFFFEC" stroke-width="1.85" stroke-linecap="round" opacity="0.59"/><line x1="142.5" y1="54.5" x2="146.4" y2="54.2" stroke="#CFFFEC" stroke-width="1.73" stroke-linecap="round" opacity="0.53"/><line x1="146.4" y1="54.2" x2="150.3" y2="53.4" stroke="#CFFFEC" stroke-width="1.60" stroke-linecap="round" opacity="0.48"/><line x1="150.3" y1="53.4" x2="154.1" y2="52.2" stroke="#CFFFEC" stroke-width="1.47" stroke-linecap="round" opacity="0.43"/><line x1="154.1" y1="52.2" x2="158.0" y2="50.6" stroke="#CFFFEC" stroke-width="1.35" stroke-linecap="round" opacity="0.37"/><line x1="158.0" y1="50.6" x2="161.9" y2="48.8" stroke="#CFFFEC" stroke-width="1.23" stroke-linecap="round" opacity="0.32"/><line x1="161.9" y1="48.8" x2="165.7" y2="46.9" stroke="#CFFFEC" stroke-width="1.11" stroke-linecap="round" opacity="0.27"/><line x1="165.7" y1="46.9" x2="169.6" y2="44.9" stroke="#CFFFEC" stroke-width="1.00" stroke-linecap="round" opacity="0.23"/><line x1="169.6" y1="44.9" x2="173.4" y2="43.0" stroke="#CFFFEC" stroke-width="0.90" stroke-linecap="round" opacity="0.19"/><line x1="173.4" y1="43.0" x2="177.3" y2="41.3" stroke="#CFFFEC" stroke-width="0.82" stroke-linecap="round" opacity="0.15"/><line x1="177.3" y1="41.3" x2="181.2" y2="39.8" stroke="#CFFFEC" stroke-width="0.75" stroke-linecap="round" opacity="0.12"/><line x1="181.2" y1="39.8" x2="185.0" y2="38.7" stroke="#CFFFEC" stroke-width="0.71" stroke-linecap="round" opacity="0.10"/><ellipse cx="104" cy="63" rx="87" ry="17" fill="url(#biglow)"/><line x1="0.5" y1="53.0" x2="5.2" y2="51.0" stroke="#CFFFEC" stroke-width="0.71" stroke-linecap="round" opacity="0.10"/><line x1="5.2" y1="51.0" x2="9.9" y2="49.6" stroke="#CFFFEC" stroke-width="0.75" stroke-linecap="round" opacity="0.12"/><line x1="9.9" y1="49.6" x2="14.7" y2="48.7" stroke="#CFFFEC" stroke-width="0.82" stroke-linecap="round" opacity="0.15"/><line x1="14.7" y1="48.7" x2="19.4" y2="48.4" stroke="#CFFFEC" stroke-width="0.90" stroke-linecap="round" opacity="0.19"/><line x1="19.4" y1="48.4" x2="24.1" y2="48.7" stroke="#CFFFEC" stroke-width="1.00" stroke-linecap="round" opacity="0.23"/><line x1="24.1" y1="48.7" x2="28.9" y2="49.6" stroke="#CFFFEC" stroke-width="1.11" stroke-linecap="round" opacity="0.27"/><line x1="28.9" y1="49.6" x2="33.6" y2="50.8" stroke="#CFFFEC" stroke-width="1.23" stroke-linecap="round" opacity="0.32"/><line x1="33.6" y1="50.8" x2="38.3" y2="52.4" stroke="#CFFFEC" stroke-width="1.35" stroke-linecap="round" opacity="0.37"/><line x1="38.3" y1="52.4" x2="43.0" y2="54.1" stroke="#CFFFEC" stroke-width="1.47" stroke-linecap="round" opacity="0.43"/><line x1="43.0" y1="54.1" x2="47.8" y2="55.9" stroke="#CFFFEC" stroke-width="1.60" stroke-linecap="round" opacity="0.48"/><line x1="47.8" y1="55.9" x2="52.5" y2="57.6" stroke="#CFFFEC" stroke-width="1.73" stroke-linecap="round" opacity="0.53"/><line x1="52.5" y1="57.6" x2="57.2" y2="59.1" stroke="#CFFFEC" stroke-width="1.85" stroke-linecap="round" opacity="0.59"/><line x1="57.2" y1="59.1" x2="61.9" y2="60.3" stroke="#CFFFEC" stroke-width="1.97" stroke-linecap="round" opacity="0.64"/><line x1="61.9" y1="60.3" x2="66.7" y2="61.3" stroke="#CFFFEC" stroke-width="2.09" stroke-linecap="round" opacity="0.68"/><line x1="66.7" y1="61.3" x2="71.4" y2="61.9" stroke="#CFFFEC" stroke-width="2.19" stroke-linecap="round" opacity="0.73"/><line x1="71.4" y1="61.9" x2="76.1" y2="62.4" stroke="#CFFFEC" stroke-width="2.29" stroke-linecap="round" opacity="0.77"/><line x1="76.1" y1="62.4" x2="80.9" y2="62.8" stroke="#CFFFEC" stroke-width="2.37" stroke-linecap="round" opacity="0.80"/><line x1="80.9" y1="62.8" x2="85.6" y2="63.1" stroke="#CFFFEC" stroke-width="2.45" stroke-linecap="round" opacity="0.84"/><line x1="85.6" y1="63.1" x2="90.3" y2="63.4" stroke="#CFFFEC" stroke-width="2.51" stroke-linecap="round" opacity="0.86"/><line x1="90.3" y1="63.4" x2="95.0" y2="63.9" stroke="#CFFFEC" stroke-width="2.55" stroke-linecap="round" opacity="0.88"/><line x1="95.0" y1="63.9" x2="99.8" y2="64.7" stroke="#CFFFEC" stroke-width="2.58" stroke-linecap="round" opacity="0.89"/><line x1="99.8" y1="64.7" x2="104.5" y2="65.7" stroke="#CFFFEC" stroke-width="2.60" stroke-linecap="round" opacity="0.90"/><line x1="104.5" y1="65.7" x2="109.2" y2="67.0" stroke="#CFFFEC" stroke-width="2.60" stroke-linecap="round" opacity="0.90"/><line x1="109.2" y1="67.0" x2="113.9" y2="68.6" stroke="#CFFFEC" stroke-width="2.58" stroke-linecap="round" opacity="0.89"/><line x1="113.9" y1="68.6" x2="118.7" y2="70.4" stroke="#CFFFEC" stroke-width="2.55" stroke-linecap="round" opacity="0.88"/><line x1="118.7" y1="70.4" x2="123.4" y2="72.3" stroke="#CFFFEC" stroke-width="2.51" stroke-linecap="round" opacity="0.86"/><line x1="123.4" y1="72.3" x2="128.1" y2="74.1" stroke="#CFFFEC" stroke-width="2.45" stroke-linecap="round" opacity="0.84"/><line x1="128.1" y1="74.1" x2="132.8" y2="75.9" stroke="#CFFFEC" stroke-width="2.37" stroke-linecap="round" opacity="0.80"/><line x1="132.8" y1="75.9" x2="137.6" y2="77.3" stroke="#CFFFEC" stroke-width="2.29" stroke-linecap="round" opacity="0.77"/><line x1="137.6" y1="77.3" x2="142.3" y2="78.3" stroke="#CFFFEC" stroke-width="2.19" stroke-linecap="round" opacity="0.73"/><line x1="142.3" y1="78.3" x2="147.0" y2="78.7" stroke="#CFFFEC" stroke-width="2.09" stroke-linecap="round" opacity="0.68"/><line x1="147.0" y1="78.7" x2="151.8" y2="78.6" stroke="#CFFFEC" stroke-width="1.97" stroke-linecap="round" opacity="0.64"/><line x1="151.8" y1="78.6" x2="156.5" y2="77.9" stroke="#CFFFEC" stroke-width="1.85" stroke-linecap="round" opacity="0.59"/><line x1="156.5" y1="77.9" x2="161.2" y2="76.5" stroke="#CFFFEC" stroke-width="1.73" stroke-linecap="round" opacity="0.53"/><line x1="161.2" y1="76.5" x2="165.9" y2="74.6" stroke="#CFFFEC" stroke-width="1.60" stroke-linecap="round" opacity="0.48"/><line x1="165.9" y1="74.6" x2="170.7" y2="72.3" stroke="#CFFFEC" stroke-width="1.47" stroke-linecap="round" opacity="0.43"/><line x1="170.7" y1="72.3" x2="175.4" y2="69.7" stroke="#CFFFEC" stroke-width="1.35" stroke-linecap="round" opacity="0.37"/><line x1="175.4" y1="69.7" x2="180.1" y2="67.0" stroke="#CFFFEC" stroke-width="1.23" stroke-linecap="round" opacity="0.32"/><line x1="180.1" y1="67.0" x2="184.8" y2="64.2" stroke="#CFFFEC" stroke-width="1.11" stroke-linecap="round" opacity="0.27"/><line x1="184.8" y1="64.2" x2="189.6" y2="61.7" stroke="#CFFFEC" stroke-width="1.00" stroke-linecap="round" opacity="0.23"/><line x1="189.6" y1="61.7" x2="194.3" y2="59.4" stroke="#CFFFEC" stroke-width="0.90" stroke-linecap="round" opacity="0.19"/><line x1="194.3" y1="59.4" x2="199.0" y2="57.5" stroke="#CFFFEC" stroke-width="0.82" stroke-linecap="round" opacity="0.15"/><line x1="199.0" y1="57.5" x2="203.8" y2="56.0" stroke="#CFFFEC" stroke-width="0.75" stroke-linecap="round" opacity="0.12"/><line x1="203.8" y1="56.0" x2="208.5" y2="55.1" stroke="#CFFFEC" stroke-width="0.71" stroke-linecap="round" opacity="0.10"/><ellipse cx="122" cy="88" rx="99" ry="17" fill="url(#biglow)"/><line x1="4.2" y1="97.6" x2="9.5" y2="100.3" stroke="#CFFFEC" stroke-width="0.71" stroke-linecap="round" opacity="0.10"/><line x1="9.5" y1="100.3" x2="14.9" y2="102.5" stroke="#CFFFEC" stroke-width="0.75" stroke-linecap="round" opacity="0.12"/><line x1="14.9" y1="102.5" x2="20.2" y2="104.1" stroke="#CFFFEC" stroke-width="0.82" stroke-linecap="round" opacity="0.15"/><line x1="20.2" y1="104.1" x2="25.5" y2="105.0" stroke="#CFFFEC" stroke-width="0.90" stroke-linecap="round" opacity="0.19"/><line x1="25.5" y1="105.0" x2="30.9" y2="105.2" stroke="#CFFFEC" stroke-width="1.00" stroke-linecap="round" opacity="0.23"/><line x1="30.9" y1="105.2" x2="36.2" y2="104.7" stroke="#CFFFEC" stroke-width="1.11" stroke-linecap="round" opacity="0.27"/><line x1="36.2" y1="104.7" x2="41.6" y2="103.7" stroke="#CFFFEC" stroke-width="1.23" stroke-linecap="round" opacity="0.32"/><line x1="41.6" y1="103.7" x2="46.9" y2="102.3" stroke="#CFFFEC" stroke-width="1.35" stroke-linecap="round" opacity="0.37"/><line x1="46.9" y1="102.3" x2="52.2" y2="100.6" stroke="#CFFFEC" stroke-width="1.47" stroke-linecap="round" opacity="0.43"/><line x1="52.2" y1="100.6" x2="57.6" y2="98.7" stroke="#CFFFEC" stroke-width="1.60" stroke-linecap="round" opacity="0.48"/><line x1="57.6" y1="98.7" x2="62.9" y2="96.8" stroke="#CFFFEC" stroke-width="1.73" stroke-linecap="round" opacity="0.53"/><line x1="62.9" y1="96.8" x2="68.3" y2="95.1" stroke="#CFFFEC" stroke-width="1.85" stroke-linecap="round" opacity="0.59"/><line x1="68.3" y1="95.1" x2="73.6" y2="93.7" stroke="#CFFFEC" stroke-width="1.97" stroke-linecap="round" opacity="0.64"/><line x1="73.6" y1="93.7" x2="79.0" y2="92.5" stroke="#CFFFEC" stroke-width="2.09" stroke-linecap="round" opacity="0.68"/><line x1="79.0" y1="92.5" x2="84.3" y2="91.6" stroke="#CFFFEC" stroke-width="2.19" stroke-linecap="round" opacity="0.73"/><line x1="84.3" y1="91.6" x2="89.6" y2="91.0" stroke="#CFFFEC" stroke-width="2.29" stroke-linecap="round" opacity="0.77"/><line x1="89.6" y1="91.0" x2="95.0" y2="90.6" stroke="#CFFFEC" stroke-width="2.37" stroke-linecap="round" opacity="0.80"/><line x1="95.0" y1="90.6" x2="100.3" y2="90.3" stroke="#CFFFEC" stroke-width="2.45" stroke-linecap="round" opacity="0.84"/><line x1="100.3" y1="90.3" x2="105.7" y2="89.9" stroke="#CFFFEC" stroke-width="2.51" stroke-linecap="round" opacity="0.86"/><line x1="105.7" y1="89.9" x2="111.0" y2="89.4" stroke="#CFFFEC" stroke-width="2.55" stroke-linecap="round" opacity="0.88"/><line x1="111.0" y1="89.4" x2="116.3" y2="88.7" stroke="#CFFFEC" stroke-width="2.58" stroke-linecap="round" opacity="0.89"/><line x1="116.3" y1="88.7" x2="121.7" y2="87.6" stroke="#CFFFEC" stroke-width="2.60" stroke-linecap="round" opacity="0.90"/><line x1="121.7" y1="87.6" x2="127.0" y2="86.2" stroke="#CFFFEC" stroke-width="2.60" stroke-linecap="round" opacity="0.90"/><line x1="127.0" y1="86.2" x2="132.4" y2="84.4" stroke="#CFFFEC" stroke-width="2.58" stroke-linecap="round" opacity="0.89"/><line x1="132.4" y1="84.4" x2="137.7" y2="82.3" stroke="#CFFFEC" stroke-width="2.55" stroke-linecap="round" opacity="0.88"/><line x1="137.7" y1="82.3" x2="143.0" y2="80.0" stroke="#CFFFEC" stroke-width="2.51" stroke-linecap="round" opacity="0.86"/><line x1="143.0" y1="80.0" x2="148.4" y2="77.7" stroke="#CFFFEC" stroke-width="2.45" stroke-linecap="round" opacity="0.84"/><line x1="148.4" y1="77.7" x2="153.7" y2="75.4" stroke="#CFFFEC" stroke-width="2.37" stroke-linecap="round" opacity="0.80"/><line x1="153.7" y1="75.4" x2="159.1" y2="73.3" stroke="#CFFFEC" stroke-width="2.29" stroke-linecap="round" opacity="0.77"/><line x1="159.1" y1="73.3" x2="164.4" y2="71.7" stroke="#CFFFEC" stroke-width="2.19" stroke-linecap="round" opacity="0.73"/><line x1="164.4" y1="71.7" x2="169.7" y2="70.6" stroke="#CFFFEC" stroke-width="2.09" stroke-linecap="round" opacity="0.68"/><line x1="169.7" y1="70.6" x2="175.1" y2="70.1" stroke="#CFFFEC" stroke-width="1.97" stroke-linecap="round" opacity="0.64"/><line x1="175.1" y1="70.1" x2="180.4" y2="70.4" stroke="#CFFFEC" stroke-width="1.85" stroke-linecap="round" opacity="0.59"/><line x1="180.4" y1="70.4" x2="185.8" y2="71.4" stroke="#CFFFEC" stroke-width="1.73" stroke-linecap="round" opacity="0.53"/><line x1="185.8" y1="71.4" x2="191.1" y2="73.1" stroke="#CFFFEC" stroke-width="1.60" stroke-linecap="round" opacity="0.48"/><line x1="191.1" y1="73.1" x2="196.4" y2="75.3" stroke="#CFFFEC" stroke-width="1.47" stroke-linecap="round" opacity="0.43"/><line x1="196.4" y1="75.3" x2="201.8" y2="78.0" stroke="#CFFFEC" stroke-width="1.35" stroke-linecap="round" opacity="0.37"/><line x1="201.8" y1="78.0" x2="207.1" y2="81.0" stroke="#CFFFEC" stroke-width="1.23" stroke-linecap="round" opacity="0.32"/><line x1="207.1" y1="81.0" x2="212.5" y2="84.2" stroke="#CFFFEC" stroke-width="1.11" stroke-linecap="round" opacity="0.27"/><line x1="212.5" y1="84.2" x2="217.8" y2="87.2" stroke="#CFFFEC" stroke-width="1.00" stroke-linecap="round" opacity="0.23"/><line x1="217.8" y1="87.2" x2="223.1" y2="90.1" stroke="#CFFFEC" stroke-width="0.90" stroke-linecap="round" opacity="0.19"/><line x1="223.1" y1="90.1" x2="228.5" y2="92.5" stroke="#CFFFEC" stroke-width="0.82" stroke-linecap="round" opacity="0.15"/><line x1="228.5" y1="92.5" x2="233.8" y2="94.5" stroke="#CFFFEC" stroke-width="0.75" stroke-linecap="round" opacity="0.12"/><line x1="233.8" y1="94.5" x2="239.2" y2="96.0" stroke="#CFFFEC" stroke-width="0.71" stroke-linecap="round" opacity="0.10"/><ellipse cx="86" cy="112" rx="56" ry="17" fill="url(#biglow)"/><line x1="19.2" y1="100.5" x2="22.2" y2="98.2" stroke="#CFFFEC" stroke-width="0.71" stroke-linecap="round" opacity="0.10"/><line x1="22.2" y1="98.2" x2="25.2" y2="96.5" stroke="#CFFFEC" stroke-width="0.75" stroke-linecap="round" opacity="0.12"/><line x1="25.2" y1="96.5" x2="28.3" y2="95.5" stroke="#CFFFEC" stroke-width="0.82" stroke-linecap="round" opacity="0.15"/><line x1="28.3" y1="95.5" x2="31.3" y2="95.1" stroke="#CFFFEC" stroke-width="0.90" stroke-linecap="round" opacity="0.19"/><line x1="31.3" y1="95.1" x2="34.3" y2="95.4" stroke="#CFFFEC" stroke-width="1.00" stroke-linecap="round" opacity="0.23"/><line x1="34.3" y1="95.4" x2="37.3" y2="96.4" stroke="#CFFFEC" stroke-width="1.11" stroke-linecap="round" opacity="0.27"/><line x1="37.3" y1="96.4" x2="40.3" y2="97.8" stroke="#CFFFEC" stroke-width="1.23" stroke-linecap="round" opacity="0.32"/><line x1="40.3" y1="97.8" x2="43.3" y2="99.5" stroke="#CFFFEC" stroke-width="1.35" stroke-linecap="round" opacity="0.37"/><line x1="43.3" y1="99.5" x2="46.4" y2="101.4" stroke="#CFFFEC" stroke-width="1.47" stroke-linecap="round" opacity="0.43"/><line x1="46.4" y1="101.4" x2="49.4" y2="103.4" stroke="#CFFFEC" stroke-width="1.60" stroke-linecap="round" opacity="0.48"/><line x1="49.4" y1="103.4" x2="52.4" y2="105.3" stroke="#CFFFEC" stroke-width="1.73" stroke-linecap="round" opacity="0.53"/><line x1="52.4" y1="105.3" x2="55.4" y2="107.0" stroke="#CFFFEC" stroke-width="1.85" stroke-linecap="round" opacity="0.59"/><line x1="55.4" y1="107.0" x2="58.4" y2="108.4" stroke="#CFFFEC" stroke-width="1.97" stroke-linecap="round" opacity="0.64"/><line x1="58.4" y1="108.4" x2="61.4" y2="109.5" stroke="#CFFFEC" stroke-width="2.09" stroke-linecap="round" opacity="0.68"/><line x1="61.4" y1="109.5" x2="64.5" y2="110.3" stroke="#CFFFEC" stroke-width="2.19" stroke-linecap="round" opacity="0.73"/><line x1="64.5" y1="110.3" x2="67.5" y2="110.8" stroke="#CFFFEC" stroke-width="2.29" stroke-linecap="round" opacity="0.77"/><line x1="67.5" y1="110.8" x2="70.5" y2="111.2" stroke="#CFFFEC" stroke-width="2.37" stroke-linecap="round" opacity="0.80"/><line x1="70.5" y1="111.2" x2="73.5" y2="111.5" stroke="#CFFFEC" stroke-width="2.45" stroke-linecap="round" opacity="0.84"/><line x1="73.5" y1="111.5" x2="76.5" y2="111.9" stroke="#CFFFEC" stroke-width="2.51" stroke-linecap="round" opacity="0.86"/><line x1="76.5" y1="111.9" x2="79.5" y2="112.5" stroke="#CFFFEC" stroke-width="2.55" stroke-linecap="round" opacity="0.88"/><line x1="79.5" y1="112.5" x2="82.6" y2="113.3" stroke="#CFFFEC" stroke-width="2.58" stroke-linecap="round" opacity="0.89"/><line x1="82.6" y1="113.3" x2="85.6" y2="114.5" stroke="#CFFFEC" stroke-width="2.60" stroke-linecap="round" opacity="0.90"/><line x1="85.6" y1="114.5" x2="88.6" y2="115.9" stroke="#CFFFEC" stroke-width="2.60" stroke-linecap="round" opacity="0.90"/><line x1="88.6" y1="115.9" x2="91.6" y2="117.7" stroke="#CFFFEC" stroke-width="2.58" stroke-linecap="round" opacity="0.89"/><line x1="91.6" y1="117.7" x2="94.6" y2="119.7" stroke="#CFFFEC" stroke-width="2.55" stroke-linecap="round" opacity="0.88"/><line x1="94.6" y1="119.7" x2="97.6" y2="121.9" stroke="#CFFFEC" stroke-width="2.51" stroke-linecap="round" opacity="0.86"/><line x1="97.6" y1="121.9" x2="100.7" y2="124.0" stroke="#CFFFEC" stroke-width="2.45" stroke-linecap="round" opacity="0.84"/><line x1="100.7" y1="124.0" x2="103.7" y2="126.0" stroke="#CFFFEC" stroke-width="2.37" stroke-linecap="round" opacity="0.80"/><line x1="103.7" y1="126.0" x2="106.7" y2="127.6" stroke="#CFFFEC" stroke-width="2.29" stroke-linecap="round" opacity="0.77"/><line x1="106.7" y1="127.6" x2="109.7" y2="128.7" stroke="#CFFFEC" stroke-width="2.19" stroke-linecap="round" opacity="0.73"/><line x1="109.7" y1="128.7" x2="112.7" y2="129.3" stroke="#CFFFEC" stroke-width="2.09" stroke-linecap="round" opacity="0.68"/><line x1="112.7" y1="129.3" x2="115.7" y2="129.2" stroke="#CFFFEC" stroke-width="1.97" stroke-linecap="round" opacity="0.64"/><line x1="115.7" y1="129.2" x2="118.7" y2="128.4" stroke="#CFFFEC" stroke-width="1.85" stroke-linecap="round" opacity="0.59"/><line x1="118.7" y1="128.4" x2="121.8" y2="126.9" stroke="#CFFFEC" stroke-width="1.73" stroke-linecap="round" opacity="0.53"/><line x1="121.8" y1="126.9" x2="124.8" y2="124.8" stroke="#CFFFEC" stroke-width="1.60" stroke-linecap="round" opacity="0.48"/><line x1="124.8" y1="124.8" x2="127.8" y2="122.3" stroke="#CFFFEC" stroke-width="1.47" stroke-linecap="round" opacity="0.43"/><line x1="127.8" y1="122.3" x2="130.8" y2="119.3" stroke="#CFFFEC" stroke-width="1.35" stroke-linecap="round" opacity="0.37"/><line x1="130.8" y1="119.3" x2="133.8" y2="116.3" stroke="#CFFFEC" stroke-width="1.23" stroke-linecap="round" opacity="0.32"/><line x1="133.8" y1="116.3" x2="136.8" y2="113.2" stroke="#CFFFEC" stroke-width="1.11" stroke-linecap="round" opacity="0.27"/><line x1="136.8" y1="113.2" x2="139.9" y2="110.3" stroke="#CFFFEC" stroke-width="1.00" stroke-linecap="round" opacity="0.23"/><line x1="139.9" y1="110.3" x2="142.9" y2="107.7" stroke="#CFFFEC" stroke-width="0.90" stroke-linecap="round" opacity="0.19"/><line x1="142.9" y1="107.7" x2="145.9" y2="105.5" stroke="#CFFFEC" stroke-width="0.82" stroke-linecap="round" opacity="0.15"/><line x1="145.9" y1="105.5" x2="148.9" y2="103.9" stroke="#CFFFEC" stroke-width="0.75" stroke-linecap="round" opacity="0.12"/><line x1="148.9" y1="103.9" x2="151.9" y2="102.7" stroke="#CFFFEC" stroke-width="0.71" stroke-linecap="round" opacity="0.10"/><ellipse cx="146" cy="140" rx="75" ry="17" fill="url(#biglow)"/><line x1="56.4" y1="133.1" x2="60.5" y2="130.5" stroke="#CFFFEC" stroke-width="0.71" stroke-linecap="round" opacity="0.10"/><line x1="60.5" y1="130.5" x2="64.6" y2="128.4" stroke="#CFFFEC" stroke-width="0.75" stroke-linecap="round" opacity="0.12"/><line x1="64.6" y1="128.4" x2="68.6" y2="126.7" stroke="#CFFFEC" stroke-width="0.82" stroke-linecap="round" opacity="0.15"/><line x1="68.6" y1="126.7" x2="72.7" y2="125.7" stroke="#CFFFEC" stroke-width="0.90" stroke-linecap="round" opacity="0.19"/><line x1="72.7" y1="125.7" x2="76.7" y2="125.2" stroke="#CFFFEC" stroke-width="1.00" stroke-linecap="round" opacity="0.23"/><line x1="76.7" y1="125.2" x2="80.8" y2="125.4" stroke="#CFFFEC" stroke-width="1.11" stroke-linecap="round" opacity="0.27"/><line x1="80.8" y1="125.4" x2="84.9" y2="126.0" stroke="#CFFFEC" stroke-width="1.23" stroke-linecap="round" opacity="0.32"/><line x1="84.9" y1="126.0" x2="88.9" y2="127.1" stroke="#CFFFEC" stroke-width="1.35" stroke-linecap="round" opacity="0.37"/><line x1="88.9" y1="127.1" x2="93.0" y2="128.5" stroke="#CFFFEC" stroke-width="1.47" stroke-linecap="round" opacity="0.43"/><line x1="93.0" y1="128.5" x2="97.0" y2="130.0" stroke="#CFFFEC" stroke-width="1.60" stroke-linecap="round" opacity="0.48"/><line x1="97.0" y1="130.0" x2="101.1" y2="131.6" stroke="#CFFFEC" stroke-width="1.73" stroke-linecap="round" opacity="0.53"/><line x1="101.1" y1="131.6" x2="105.2" y2="133.1" stroke="#CFFFEC" stroke-width="1.85" stroke-linecap="round" opacity="0.59"/><line x1="105.2" y1="133.1" x2="109.2" y2="134.4" stroke="#CFFFEC" stroke-width="1.97" stroke-linecap="round" opacity="0.64"/><line x1="109.2" y1="134.4" x2="113.3" y2="135.4" stroke="#CFFFEC" stroke-width="2.09" stroke-linecap="round" opacity="0.68"/><line x1="113.3" y1="135.4" x2="117.3" y2="136.2" stroke="#CFFFEC" stroke-width="2.19" stroke-linecap="round" opacity="0.73"/><line x1="117.3" y1="136.2" x2="121.4" y2="136.8" stroke="#CFFFEC" stroke-width="2.29" stroke-linecap="round" opacity="0.77"/><line x1="121.4" y1="136.8" x2="125.5" y2="137.1" stroke="#CFFFEC" stroke-width="2.37" stroke-linecap="round" opacity="0.80"/><line x1="125.5" y1="137.1" x2="129.5" y2="137.4" stroke="#CFFFEC" stroke-width="2.45" stroke-linecap="round" opacity="0.84"/><line x1="129.5" y1="137.4" x2="133.6" y2="137.7" stroke="#CFFFEC" stroke-width="2.51" stroke-linecap="round" opacity="0.86"/><line x1="133.6" y1="137.7" x2="137.6" y2="138.1" stroke="#CFFFEC" stroke-width="2.55" stroke-linecap="round" opacity="0.88"/><line x1="137.6" y1="138.1" x2="141.7" y2="138.7" stroke="#CFFFEC" stroke-width="2.58" stroke-linecap="round" opacity="0.89"/><line x1="141.7" y1="138.7" x2="145.8" y2="139.6" stroke="#CFFFEC" stroke-width="2.60" stroke-linecap="round" opacity="0.90"/><line x1="145.8" y1="139.6" x2="149.8" y2="140.8" stroke="#CFFFEC" stroke-width="2.60" stroke-linecap="round" opacity="0.90"/><line x1="149.8" y1="140.8" x2="153.9" y2="142.3" stroke="#CFFFEC" stroke-width="2.58" stroke-linecap="round" opacity="0.89"/><line x1="153.9" y1="142.3" x2="157.9" y2="144.1" stroke="#CFFFEC" stroke-width="2.55" stroke-linecap="round" opacity="0.88"/><line x1="157.9" y1="144.1" x2="162.0" y2="146.2" stroke="#CFFFEC" stroke-width="2.51" stroke-linecap="round" opacity="0.86"/><line x1="162.0" y1="146.2" x2="166.1" y2="148.4" stroke="#CFFFEC" stroke-width="2.45" stroke-linecap="round" opacity="0.84"/><line x1="166.1" y1="148.4" x2="170.1" y2="150.5" stroke="#CFFFEC" stroke-width="2.37" stroke-linecap="round" opacity="0.80"/><line x1="170.1" y1="150.5" x2="174.2" y2="152.5" stroke="#CFFFEC" stroke-width="2.29" stroke-linecap="round" opacity="0.77"/><line x1="174.2" y1="152.5" x2="178.2" y2="154.2" stroke="#CFFFEC" stroke-width="2.19" stroke-linecap="round" opacity="0.73"/><line x1="178.2" y1="154.2" x2="182.3" y2="155.4" stroke="#CFFFEC" stroke-width="2.09" stroke-linecap="round" opacity="0.68"/><line x1="182.3" y1="155.4" x2="186.4" y2="156.1" stroke="#CFFFEC" stroke-width="1.97" stroke-linecap="round" opacity="0.64"/><line x1="186.4" y1="156.1" x2="190.4" y2="156.1" stroke="#CFFFEC" stroke-width="1.85" stroke-linecap="round" opacity="0.59"/><line x1="190.4" y1="156.1" x2="194.5" y2="155.5" stroke="#CFFFEC" stroke-width="1.73" stroke-linecap="round" opacity="0.53"/><line x1="194.5" y1="155.5" x2="198.5" y2="154.3" stroke="#CFFFEC" stroke-width="1.60" stroke-linecap="round" opacity="0.48"/><line x1="198.5" y1="154.3" x2="202.6" y2="152.5" stroke="#CFFFEC" stroke-width="1.47" stroke-linecap="round" opacity="0.43"/><line x1="202.6" y1="152.5" x2="206.7" y2="150.3" stroke="#CFFFEC" stroke-width="1.35" stroke-linecap="round" opacity="0.37"/><line x1="206.7" y1="150.3" x2="210.7" y2="147.7" stroke="#CFFFEC" stroke-width="1.23" stroke-linecap="round" opacity="0.32"/><line x1="210.7" y1="147.7" x2="214.8" y2="145.0" stroke="#CFFFEC" stroke-width="1.11" stroke-linecap="round" opacity="0.27"/><line x1="214.8" y1="145.0" x2="218.8" y2="142.3" stroke="#CFFFEC" stroke-width="1.00" stroke-linecap="round" opacity="0.23"/><line x1="218.8" y1="142.3" x2="222.9" y2="139.8" stroke="#CFFFEC" stroke-width="0.90" stroke-linecap="round" opacity="0.19"/><line x1="222.9" y1="139.8" x2="227.0" y2="137.5" stroke="#CFFFEC" stroke-width="0.82" stroke-linecap="round" opacity="0.15"/><line x1="227.0" y1="137.5" x2="231.0" y2="135.6" stroke="#CFFFEC" stroke-width="0.75" stroke-linecap="round" opacity="0.12"/><line x1="231.0" y1="135.6" x2="235.1" y2="134.1" stroke="#CFFFEC" stroke-width="0.71" stroke-linecap="round" opacity="0.10"/><ellipse cx="146" cy="174" rx="71" ry="17" fill="url(#biglow)"/><line x1="61.2" y1="189.1" x2="65.1" y2="189.6" stroke="#CFFFEC" stroke-width="0.71" stroke-linecap="round" opacity="0.10"/><line x1="65.1" y1="189.6" x2="68.9" y2="189.5" stroke="#CFFFEC" stroke-width="0.75" stroke-linecap="round" opacity="0.12"/><line x1="68.9" y1="189.5" x2="72.7" y2="188.8" stroke="#CFFFEC" stroke-width="0.82" stroke-linecap="round" opacity="0.15"/><line x1="72.7" y1="188.8" x2="76.6" y2="187.6" stroke="#CFFFEC" stroke-width="0.90" stroke-linecap="round" opacity="0.19"/><line x1="76.6" y1="187.6" x2="80.4" y2="185.9" stroke="#CFFFEC" stroke-width="1.00" stroke-linecap="round" opacity="0.23"/><line x1="80.4" y1="185.9" x2="84.3" y2="184.0" stroke="#CFFFEC" stroke-width="1.11" stroke-linecap="round" opacity="0.27"/><line x1="84.3" y1="184.0" x2="88.1" y2="181.8" stroke="#CFFFEC" stroke-width="1.23" stroke-linecap="round" opacity="0.32"/><line x1="88.1" y1="181.8" x2="91.9" y2="179.7" stroke="#CFFFEC" stroke-width="1.35" stroke-linecap="round" opacity="0.37"/><line x1="91.9" y1="179.7" x2="95.8" y2="177.6" stroke="#CFFFEC" stroke-width="1.47" stroke-linecap="round" opacity="0.43"/><line x1="95.8" y1="177.6" x2="99.6" y2="175.8" stroke="#CFFFEC" stroke-width="1.60" stroke-linecap="round" opacity="0.48"/><line x1="99.6" y1="175.8" x2="103.5" y2="174.2" stroke="#CFFFEC" stroke-width="1.73" stroke-linecap="round" opacity="0.53"/><line x1="103.5" y1="174.2" x2="107.3" y2="173.0" stroke="#CFFFEC" stroke-width="1.85" stroke-linecap="round" opacity="0.59"/><line x1="107.3" y1="173.0" x2="111.1" y2="172.1" stroke="#CFFFEC" stroke-width="1.97" stroke-linecap="round" opacity="0.64"/><line x1="111.1" y1="172.1" x2="115.0" y2="171.5" stroke="#CFFFEC" stroke-width="2.09" stroke-linecap="round" opacity="0.68"/><line x1="115.0" y1="171.5" x2="118.8" y2="171.1" stroke="#CFFFEC" stroke-width="2.19" stroke-linecap="round" opacity="0.73"/><line x1="118.8" y1="171.1" x2="122.7" y2="170.9" stroke="#CFFFEC" stroke-width="2.29" stroke-linecap="round" opacity="0.77"/><line x1="122.7" y1="170.9" x2="126.5" y2="170.7" stroke="#CFFFEC" stroke-width="2.37" stroke-linecap="round" opacity="0.80"/><line x1="126.5" y1="170.7" x2="130.4" y2="170.4" stroke="#CFFFEC" stroke-width="2.45" stroke-linecap="round" opacity="0.84"/><line x1="130.4" y1="170.4" x2="134.2" y2="170.0" stroke="#CFFFEC" stroke-width="2.51" stroke-linecap="round" opacity="0.86"/><line x1="134.2" y1="170.0" x2="138.0" y2="169.3" stroke="#CFFFEC" stroke-width="2.55" stroke-linecap="round" opacity="0.88"/><line x1="138.0" y1="169.3" x2="141.9" y2="168.5" stroke="#CFFFEC" stroke-width="2.58" stroke-linecap="round" opacity="0.89"/><line x1="141.9" y1="168.5" x2="145.7" y2="167.4" stroke="#CFFFEC" stroke-width="2.60" stroke-linecap="round" opacity="0.90"/><line x1="145.7" y1="167.4" x2="149.6" y2="166.1" stroke="#CFFFEC" stroke-width="2.60" stroke-linecap="round" opacity="0.90"/><line x1="149.6" y1="166.1" x2="153.4" y2="164.8" stroke="#CFFFEC" stroke-width="2.58" stroke-linecap="round" opacity="0.89"/><line x1="153.4" y1="164.8" x2="157.2" y2="163.4" stroke="#CFFFEC" stroke-width="2.55" stroke-linecap="round" opacity="0.88"/><line x1="157.2" y1="163.4" x2="161.1" y2="162.2" stroke="#CFFFEC" stroke-width="2.51" stroke-linecap="round" opacity="0.86"/><line x1="161.1" y1="162.2" x2="164.9" y2="161.3" stroke="#CFFFEC" stroke-width="2.45" stroke-linecap="round" opacity="0.84"/><line x1="164.9" y1="161.3" x2="168.8" y2="160.7" stroke="#CFFFEC" stroke-width="2.37" stroke-linecap="round" opacity="0.80"/><line x1="168.8" y1="160.7" x2="172.6" y2="160.6" stroke="#CFFFEC" stroke-width="2.29" stroke-linecap="round" opacity="0.77"/><line x1="172.6" y1="160.6" x2="176.4" y2="161.1" stroke="#CFFFEC" stroke-width="2.19" stroke-linecap="round" opacity="0.73"/><line x1="176.4" y1="161.1" x2="180.3" y2="162.1" stroke="#CFFFEC" stroke-width="2.09" stroke-linecap="round" opacity="0.68"/><line x1="180.3" y1="162.1" x2="184.1" y2="163.7" stroke="#CFFFEC" stroke-width="1.97" stroke-linecap="round" opacity="0.64"/><line x1="184.1" y1="163.7" x2="188.0" y2="165.8" stroke="#CFFFEC" stroke-width="1.85" stroke-linecap="round" opacity="0.59"/><line x1="188.0" y1="165.8" x2="191.8" y2="168.2" stroke="#CFFFEC" stroke-width="1.73" stroke-linecap="round" opacity="0.53"/><line x1="191.8" y1="168.2" x2="195.6" y2="170.9" stroke="#CFFFEC" stroke-width="1.60" stroke-linecap="round" opacity="0.48"/><line x1="195.6" y1="170.9" x2="199.5" y2="173.8" stroke="#CFFFEC" stroke-width="1.47" stroke-linecap="round" opacity="0.43"/><line x1="199.5" y1="173.8" x2="203.3" y2="176.6" stroke="#CFFFEC" stroke-width="1.35" stroke-linecap="round" opacity="0.37"/><line x1="203.3" y1="176.6" x2="207.2" y2="179.1" stroke="#CFFFEC" stroke-width="1.23" stroke-linecap="round" opacity="0.32"/><line x1="207.2" y1="179.1" x2="211.0" y2="181.4" stroke="#CFFFEC" stroke-width="1.11" stroke-linecap="round" opacity="0.27"/><line x1="211.0" y1="181.4" x2="214.8" y2="183.2" stroke="#CFFFEC" stroke-width="1.00" stroke-linecap="round" opacity="0.23"/><line x1="214.8" y1="183.2" x2="218.7" y2="184.5" stroke="#CFFFEC" stroke-width="0.90" stroke-linecap="round" opacity="0.19"/><line x1="218.7" y1="184.5" x2="222.5" y2="185.3" stroke="#CFFFEC" stroke-width="0.82" stroke-linecap="round" opacity="0.15"/><line x1="222.5" y1="185.3" x2="226.4" y2="185.7" stroke="#CFFFEC" stroke-width="0.75" stroke-linecap="round" opacity="0.12"/><line x1="226.4" y1="185.7" x2="230.2" y2="185.5" stroke="#CFFFEC" stroke-width="0.71" stroke-linecap="round" opacity="0.10"/><ellipse cx="133" cy="195" rx="66" ry="17" fill="url(#biglow)"/><line x1="55.0" y1="185.1" x2="58.6" y2="181.3" stroke="#CFFFEC" stroke-width="0.71" stroke-linecap="round" opacity="0.10"/><line x1="58.6" y1="181.3" x2="62.2" y2="178.1" stroke="#CFFFEC" stroke-width="0.75" stroke-linecap="round" opacity="0.12"/><line x1="62.2" y1="178.1" x2="65.7" y2="175.6" stroke="#CFFFEC" stroke-width="0.82" stroke-linecap="round" opacity="0.15"/><line x1="65.7" y1="175.6" x2="69.3" y2="174.0" stroke="#CFFFEC" stroke-width="0.90" stroke-linecap="round" opacity="0.19"/><line x1="69.3" y1="174.0" x2="72.8" y2="173.3" stroke="#CFFFEC" stroke-width="1.00" stroke-linecap="round" opacity="0.23"/><line x1="72.8" y1="173.3" x2="76.4" y2="173.5" stroke="#CFFFEC" stroke-width="1.11" stroke-linecap="round" opacity="0.27"/><line x1="76.4" y1="173.5" x2="79.9" y2="174.5" stroke="#CFFFEC" stroke-width="1.23" stroke-linecap="round" opacity="0.32"/><line x1="79.9" y1="174.5" x2="83.5" y2="176.0" stroke="#CFFFEC" stroke-width="1.35" stroke-linecap="round" opacity="0.37"/><line x1="83.5" y1="176.0" x2="87.0" y2="178.0" stroke="#CFFFEC" stroke-width="1.47" stroke-linecap="round" opacity="0.43"/><line x1="87.0" y1="178.0" x2="90.6" y2="180.3" stroke="#CFFFEC" stroke-width="1.60" stroke-linecap="round" opacity="0.48"/><line x1="90.6" y1="180.3" x2="94.1" y2="182.6" stroke="#CFFFEC" stroke-width="1.73" stroke-linecap="round" opacity="0.53"/><line x1="94.1" y1="182.6" x2="97.7" y2="184.8" stroke="#CFFFEC" stroke-width="1.85" stroke-linecap="round" opacity="0.59"/><line x1="97.7" y1="184.8" x2="101.3" y2="186.7" stroke="#CFFFEC" stroke-width="1.97" stroke-linecap="round" opacity="0.64"/><line x1="101.3" y1="186.7" x2="104.8" y2="188.2" stroke="#CFFFEC" stroke-width="2.09" stroke-linecap="round" opacity="0.68"/><line x1="104.8" y1="188.2" x2="108.4" y2="189.4" stroke="#CFFFEC" stroke-width="2.19" stroke-linecap="round" opacity="0.73"/><line x1="108.4" y1="189.4" x2="111.9" y2="190.2" stroke="#CFFFEC" stroke-width="2.29" stroke-linecap="round" opacity="0.77"/><line x1="111.9" y1="190.2" x2="115.5" y2="190.7" stroke="#CFFFEC" stroke-width="2.37" stroke-linecap="round" opacity="0.80"/><line x1="115.5" y1="190.7" x2="119.0" y2="191.1" stroke="#CFFFEC" stroke-width="2.45" stroke-linecap="round" opacity="0.84"/><line x1="119.0" y1="191.1" x2="122.6" y2="191.5" stroke="#CFFFEC" stroke-width="2.51" stroke-linecap="round" opacity="0.86"/><line x1="122.6" y1="191.5" x2="126.1" y2="192.1" stroke="#CFFFEC" stroke-width="2.55" stroke-linecap="round" opacity="0.88"/><line x1="126.1" y1="192.1" x2="129.7" y2="193.0" stroke="#CFFFEC" stroke-width="2.58" stroke-linecap="round" opacity="0.89"/><line x1="129.7" y1="193.0" x2="133.3" y2="194.3" stroke="#CFFFEC" stroke-width="2.60" stroke-linecap="round" opacity="0.90"/><line x1="133.3" y1="194.3" x2="136.8" y2="196.0" stroke="#CFFFEC" stroke-width="2.60" stroke-linecap="round" opacity="0.90"/><line x1="136.8" y1="196.0" x2="140.4" y2="198.3" stroke="#CFFFEC" stroke-width="2.58" stroke-linecap="round" opacity="0.89"/><line x1="140.4" y1="198.3" x2="143.9" y2="201.0" stroke="#CFFFEC" stroke-width="2.55" stroke-linecap="round" opacity="0.88"/><line x1="143.9" y1="201.0" x2="147.5" y2="204.0" stroke="#CFFFEC" stroke-width="2.51" stroke-linecap="round" opacity="0.86"/><line x1="147.5" y1="204.0" x2="151.0" y2="207.2" stroke="#CFFFEC" stroke-width="2.45" stroke-linecap="round" opacity="0.84"/><line x1="151.0" y1="207.2" x2="154.6" y2="210.4" stroke="#CFFFEC" stroke-width="2.37" stroke-linecap="round" opacity="0.80"/><line x1="154.6" y1="210.4" x2="158.1" y2="213.3" stroke="#CFFFEC" stroke-width="2.29" stroke-linecap="round" opacity="0.77"/><line x1="158.1" y1="213.3" x2="161.7" y2="215.8" stroke="#CFFFEC" stroke-width="2.19" stroke-linecap="round" opacity="0.73"/><line x1="161.7" y1="215.8" x2="165.3" y2="217.6" stroke="#CFFFEC" stroke-width="2.09" stroke-linecap="round" opacity="0.68"/><line x1="165.3" y1="217.6" x2="168.8" y2="218.6" stroke="#CFFFEC" stroke-width="1.97" stroke-linecap="round" opacity="0.64"/><line x1="168.8" y1="218.6" x2="172.4" y2="218.7" stroke="#CFFFEC" stroke-width="1.85" stroke-linecap="round" opacity="0.59"/><line x1="172.4" y1="218.7" x2="175.9" y2="217.9" stroke="#CFFFEC" stroke-width="1.73" stroke-linecap="round" opacity="0.53"/><line x1="175.9" y1="217.9" x2="179.5" y2="216.1" stroke="#CFFFEC" stroke-width="1.60" stroke-linecap="round" opacity="0.48"/><line x1="179.5" y1="216.1" x2="183.0" y2="213.5" stroke="#CFFFEC" stroke-width="1.47" stroke-linecap="round" opacity="0.43"/><line x1="183.0" y1="213.5" x2="186.6" y2="210.3" stroke="#CFFFEC" stroke-width="1.35" stroke-linecap="round" opacity="0.37"/><line x1="186.6" y1="210.3" x2="190.1" y2="206.6" stroke="#CFFFEC" stroke-width="1.23" stroke-linecap="round" opacity="0.32"/><line x1="190.1" y1="206.6" x2="193.7" y2="202.6" stroke="#CFFFEC" stroke-width="1.11" stroke-linecap="round" opacity="0.27"/><line x1="193.7" y1="202.6" x2="197.3" y2="198.6" stroke="#CFFFEC" stroke-width="1.00" stroke-linecap="round" opacity="0.23"/><line x1="197.3" y1="198.6" x2="200.8" y2="194.8" stroke="#CFFFEC" stroke-width="0.90" stroke-linecap="round" opacity="0.19"/><line x1="200.8" y1="194.8" x2="204.4" y2="191.5" stroke="#CFFFEC" stroke-width="0.82" stroke-linecap="round" opacity="0.15"/><line x1="204.4" y1="191.5" x2="207.9" y2="188.7" stroke="#CFFFEC" stroke-width="0.75" stroke-linecap="round" opacity="0.12"/><line x1="207.9" y1="188.7" x2="211.5" y2="186.5" stroke="#CFFFEC" stroke-width="0.71" stroke-linecap="round" opacity="0.10"/><circle cx="158.5" cy="123.2" r="0.59" fill="#5FE8B0" opacity="0.53"/><circle cx="115.0" cy="153.1" r="0.81" fill="#5FE8B0" opacity="0.22"/><circle cx="218.1" cy="15.7" r="0.61" fill="#5FE8B0" opacity="0.25"/><circle cx="82.3" cy="145.4" r="0.82" fill="#5FE8B0" opacity="0.58"/><circle cx="117.5" cy="193.8" r="0.65" fill="#5FE8B0" opacity="0.48"/><circle cx="121.1" cy="16.8" r="0.54" fill="#5FE8B0" opacity="0.20"/><circle cx="59.7" cy="13.4" r="0.60" fill="#5FE8B0" opacity="0.37"/><circle cx="155.2" cy="194.2" r="0.70" fill="#5FE8B0" opacity="0.53"/><circle cx="124.7" cy="61.8" r="0.52" fill="#5FE8B0" opacity="0.42"/><circle cx="190.6" cy="140.1" r="0.94" fill="#5FE8B0" opacity="0.59"/><circle cx="149.1" cy="64.8" r="0.73" fill="#5FE8B0" opacity="0.46"/><circle cx="2.7" cy="75.8" r="0.66" fill="#5FE8B0" opacity="0.16"/><circle cx="134.9" cy="130.6" r="0.43" fill="#5FE8B0" opacity="0.30"/><circle cx="217.0" cy="106.7" r="0.57" fill="#5FE8B0" opacity="0.67"/><circle cx="109.4" cy="147.1" r="1.12" fill="#5FE8B0" opacity="0.48"/><circle cx="37.8" cy="166.2" r="1.15" fill="#5FE8B0" opacity="0.40"/><circle cx="158.8" cy="200.8" r="0.48" fill="#5FE8B0" opacity="0.62"/><circle cx="113.7" cy="131.4" r="1.14" fill="#5FE8B0" opacity="0.64"/><circle cx="32.1" cy="101.6" r="0.92" fill="#5FE8B0" opacity="0.64"/><circle cx="38.6" cy="163.5" r="0.79" fill="#5FE8B0" opacity="0.20"/><circle cx="124.7" cy="108.9" r="0.73" fill="#5FE8B0" opacity="0.31"/><circle cx="87.7" cy="176.6" r="0.64" fill="#5FE8B0" opacity="0.67"/><circle cx="168.5" cy="174.5" r="0.69" fill="#5FE8B0" opacity="0.25"/><circle cx="2.3" cy="99.9" r="0.75" fill="#5FE8B0" opacity="0.38"/><circle cx="24.8" cy="21.4" r="1.10" fill="#5FE8B0" opacity="0.38"/><circle cx="208.2" cy="191.9" r="0.84" fill="#5FE8B0" opacity="0.67"/><circle cx="228.4" cy="149.6" r="0.35" fill="#5FE8B0" opacity="0.53"/><circle cx="118.4" cy="182.8" r="0.66" fill="#5FE8B0" opacity="0.57"/><circle cx="87.6" cy="138.1" r="0.73" fill="#5FE8B0" opacity="0.28"/><circle cx="76.9" cy="25.8" r="0.88" fill="#5FE8B0" opacity="0.69"/><circle cx="142.9" cy="48.7" r="0.81" fill="#5FE8B0" opacity="0.31"/><circle cx="92.0" cy="12.5" r="1.17" fill="#5FE8B0" opacity="0.46"/><circle cx="137.2" cy="32.5" r="0.46" fill="#5FE8B0" opacity="0.68"/><circle cx="203.0" cy="157.5" r="0.94" fill="#5FE8B0" opacity="0.71"/><circle cx="162.3" cy="141.9" r="0.48" fill="#5FE8B0" opacity="0.29"/><circle cx="52.6" cy="21.4" r="0.70" fill="#5FE8B0" opacity="0.18"/><circle cx="218.0" cy="146.6" r="0.63" fill="#5FE8B0" opacity="0.31"/><circle cx="176.9" cy="206.0" r="1.20" fill="#5FE8B0" opacity="0.20"/><circle cx="106.9" cy="222.2" r="0.85" fill="#5FE8B0" opacity="0.63"/><circle cx="92.4" cy="201.0" r="1.17" fill="#5FE8B0" opacity="0.31"/><circle cx="80.1" cy="102.4" r="1.17" fill="#5FE8B0" opacity="0.19"/><circle cx="145.6" cy="136.3" r="1.00" fill="#5FE8B0" opacity="0.20"/><circle cx="38.2" cy="182.9" r="1.15" fill="#5FE8B0" opacity="0.47"/><circle cx="123.6" cy="165.4" r="0.52" fill="#5FE8B0" opacity="0.65"/><circle cx="5.9" cy="147.9" r="1.07" fill="#5FE8B0" opacity="0.23"/><circle cx="86.5" cy="71.1" r="1.01" fill="#5FE8B0" opacity="0.26"/><circle cx="95.8" cy="138.0" r="0.38" fill="#5FE8B0" opacity="0.38"/><circle cx="42.3" cy="69.9" r="0.49" fill="#5FE8B0" opacity="0.38"/><circle cx="9.5" cy="64.9" r="0.53" fill="#5FE8B0" opacity="0.56"/><circle cx="165.2" cy="100.5" r="0.44" fill="#5FE8B0" opacity="0.47"/><circle cx="124.8" cy="123.7" r="0.67" fill="#5FE8B0" opacity="0.31"/><circle cx="4.5" cy="40.1" r="0.47" fill="#5FE8B0" opacity="0.34"/><circle cx="65.2" cy="105.1" r="1.08" fill="#5FE8B0" opacity="0.70"/><circle cx="93.7" cy="134.1" r="1.15" fill="#5FE8B0" opacity="0.55"/><circle cx="11.4" cy="103.6" r="1.01" fill="#5FE8B0" opacity="0.39"/><circle cx="225.1" cy="60.0" r="1.01" fill="#5FE8B0" opacity="0.55"/><circle cx="160.4" cy="82.6" r="0.61" fill="#5FE8B0" opacity="0.41"/><circle cx="165.9" cy="91.9" r="1.16" fill="#5FE8B0" opacity="0.51"/><circle cx="105.3" cy="148.8" r="0.46" fill="#5FE8B0" opacity="0.57"/><circle cx="35.7" cy="189.1" r="0.39" fill="#5FE8B0" opacity="0.55"/><circle cx="181.6" cy="55.3" r="0.45" fill="#5FE8B0" opacity="0.60"/><circle cx="69.5" cy="120.6" r="0.63" fill="#5FE8B0" opacity="0.25"/><circle cx="228.2" cy="79.4" r="0.75" fill="#5FE8B0" opacity="0.37"/><circle cx="197.1" cy="187.1" r="1.09" fill="#5FE8B0" opacity="0.32"/><circle cx="150.4" cy="14.4" r="0.59" fill="#5FE8B0" opacity="0.46"/><circle cx="79.9" cy="225.1" r="0.91" fill="#5FE8B0" opacity="0.70"/><circle cx="53.0" cy="149.0" r="0.67" fill="#5FE8B0" opacity="0.55"/><circle cx="178.6" cy="167.4" r="0.58" fill="#5FE8B0" opacity="0.68"/><circle cx="90.6" cy="137.9" r="1.15" fill="#5FE8B0" opacity="0.62"/><circle cx="42.0" cy="183.9" r="0.61" fill="#5FE8B0" opacity="0.34"/><circle cx="89.7" cy="103.0" r="1.11" fill="#5FE8B0" opacity="0.51"/><circle cx="78.0" cy="68.2" r="1.11" fill="#5FE8B0" opacity="0.17"/><circle cx="29.0" cy="214.2" r="0.94" fill="#5FE8B0" opacity="0.56"/><circle cx="136.6" cy="30.4" r="0.66" fill="#5FE8B0" opacity="0.36"/><circle cx="97.7" cy="106.1" r="0.95" fill="#5FE8B0" opacity="0.15"/><circle cx="141.1" cy="169.1" r="0.98" fill="#5FE8B0" opacity="0.19"/><circle cx="29.1" cy="39.0" r="0.66" fill="#5FE8B0" opacity="0.32"/><circle cx="74.5" cy="71.5" r="0.55" fill="#5FE8B0" opacity="0.50"/><circle cx="82.2" cy="96.7" r="0.67" fill="#5FE8B0" opacity="0.61"/><circle cx="135.8" cy="148.9" r="0.88" fill="#5FE8B0" opacity="0.31"/><circle cx="138.0" cy="186.4" r="0.70" fill="#5FE8B0" opacity="0.35"/><circle cx="107.6" cy="69.5" r="1.00" fill="#5FE8B0" opacity="0.56"/><circle cx="223.8" cy="73.6" r="0.88" fill="#5FE8B0" opacity="0.48"/><circle cx="10.3" cy="24.9" r="0.96" fill="#5FE8B0" opacity="0.23"/><circle cx="153.0" cy="123.8" r="0.98" fill="#5FE8B0" opacity="0.22"/><circle cx="148.4" cy="130.9" r="0.42" fill="#5FE8B0" opacity="0.73"/><circle cx="31.4" cy="221.3" r="0.35" fill="#5FE8B0" opacity="0.26"/><circle cx="142.3" cy="205.7" r="1.16" fill="#5FE8B0" opacity="0.39"/><circle cx="26.4" cy="156.1" r="1.12" fill="#5FE8B0" opacity="0.73"/><circle cx="66.9" cy="17.6" r="0.76" fill="#5FE8B0" opacity="0.71"/></svg>