<svg viewBox="0 0 240 240" xmlns="http://www.w3.org/2000/svg"><defs><radialGradient id="ssp" cx="50%" cy="50%" r="50%"><stop offset="0%" stop-color="#B4501F" stop-opacity="0.5"/><stop offset="60%" stop-color="#B4501F" stop-opacity="0.16"/><stop offset="100%" stop-color="#B4501F" stop-opacity="0"/></radialGradient></defs><ellipse cx="120" cy="214" rx="72" ry="8" fill="#141210" opacity="0.05"/><circle cx="150" cy="176" r="62" fill="url(#ssp)"/><polygon points="54,60 75,60 75,81 96,81 96,102 117,102 117,123 138,123 138,144 159,144 159,165 180,165 180,186 180,202 54,202" fill="#141210"/><line x1="54" y1="60" x2="75" y2="60" stroke="#B4501F" stroke-width="4" stroke-linecap="round"/><line x1="75" y1="81" x2="96" y2="81" stroke="#B4501F" stroke-width="4" stroke-linecap="round"/><line x1="96" y1="102" x2="117" y2="102" stroke="#B4501F" stroke-width="4" stroke-linecap="round"/><line x1="117" y1="123" x2="138" y2="123" stroke="#B4501F" stroke-width="4" stroke-linecap="round"/><line x1="138" y1="144" x2="159" y2="144" stroke="#B4501F" stroke-width="4" stroke-linecap="round"/><line x1="159" y1="165" x2="180" y2="165" stroke="#B4501F" stroke-width="4" stroke-linecap="round"/><rect x="176" y="182" width="10" height="26" fill="#B4501F"/><circle cx="60" cy="150" r="2.2" fill="#141210"/><circle cx="186" cy="172" r="2.4" fill="#141210"/></svg>