<svg viewBox="0 0 240 240" xmlns="http://www.w3.org/2000/svg">
  <defs>
    <radialGradient id="gpd" cx="50%" cy="50%" r="50%">
      <stop offset="0%" stop-color="#2E6FB0" stop-opacity="0.42"/>
      <stop offset="55%" stop-color="#2E6FB0" stop-opacity="0.14"/>
      <stop offset="100%" stop-color="#2E6FB0" stop-opacity="0"/>
    </radialGradient>
  </defs>
  <ellipse cx="120" cy="214" rx="56" ry="8" fill="#14120f" opacity="0.05"/>
  <!-- luna azul (la noche donde se pierden) -->
  <circle cx="126" cy="58" r="46" fill="url(#gpd)"/>
  <path d="M124 32 A29 29 0 1 0 124 84 A38 38 0 0 1 124 32 Z" fill="#2E6FB0"/>
  <!-- la pareja, juntos -->
  <g fill="#141210">
    <path d="M92 202 C86 172 88 144 96 126 C100 117 110 119 110 130 C108 154 104 178 102 202 Z"/>
    <circle cx="106" cy="110" r="13"/>
    <path d="M148 202 C154 172 152 144 144 126 C140 117 130 119 130 130 C132 154 136 178 138 202 Z"/>
    <circle cx="134" cy="110" r="13"/>
  </g>
  <circle cx="66" cy="150" r="2.2" fill="#141210"/>
  <circle cx="178" cy="142" r="2.4" fill="#141210"/>
</svg>
