<svg viewBox="0 0 240 240" xmlns="http://www.w3.org/2000/svg">
  <defs><radialGradient id="gvu" cx="50%" cy="50%" r="50%">
    <stop offset="0%" stop-color="#8FA3B0" stop-opacity="0.42"/>
    <stop offset="55%" stop-color="#8FA3B0" stop-opacity="0.14"/>
    <stop offset="100%" stop-color="#8FA3B0" stop-opacity="0"/>
  </radialGradient></defs>
  <circle cx="120" cy="118" r="52" fill="url(#gvu)"/>
  <path d="M146 62 A40 40 0 1 0 146 134 A32 32 0 1 1 146 62 Z" fill="#8FA3B0"/>
  <path d="M62 150 C88 128 118 122 150 130" fill="none" stroke="#141210" stroke-width="5" stroke-linecap="round" stroke-dasharray="2 10"/>
  <path d="M150 130 L136 122 M150 130 L138 140" stroke="#141210" stroke-width="5" stroke-linecap="round"/>
  <path d="M64 148 C58 142 50 140 44 142 C50 146 54 150 56 156 Z" fill="#C9D6DE"/>
  <circle cx="170" cy="76" r="2.6" fill="#C9D6DE"/><circle cx="86" cy="84" r="2.2" fill="#C9D6DE"/>
  <rect x="46" y="176" width="148" height="5" rx="2.5" fill="#141210"/>
  <circle cx="60" cy="110" r="2.2" fill="#141210"/><circle cx="184" cy="152" r="2.4" fill="#141210"/>
</svg>